<svg width="54" height="49" viewBox="0 0 54 49" fill="none" xmlns="http://www.w3.org/2000/svg">
<path d="M53.6577 0H33.2984V21.0338C33.2984 23.1188 33.4415 25.2651 33.7277 27.4728C34.0139 29.6804 34.484 31.8063 35.1381 33.8504C35.7922 35.8945 36.6303 37.8568 37.6524 39.7374C38.6744 41.618 39.9418 43.2124 41.4544 44.5206C42.967 45.8288 44.6841 46.9122 46.6056 47.7707C48.527 48.6293 50.7755 49.0381 53.3511 48.9972V39.3695C51.8385 39.3695 50.5302 39.0833 49.4264 38.511C48.3226 37.9386 47.3619 37.1618 46.5442 36.1807C45.7266 35.1995 45.1134 34.0752 44.7045 32.8079C44.2957 31.5406 43.9278 30.2323 43.6007 28.8832C43.2737 27.5341 43.0897 26.185 43.0488 24.8359C43.0079 23.4868 42.9466 22.2194 42.8648 21.0338H53.6577V0ZM-5.72205e-05 0V21.0338C-5.72205e-05 24.2227 0.327 27.4728 0.981113 30.7842C1.63523 34.0957 2.73904 37.1005 4.29256 39.7987C5.84608 42.497 7.89019 44.7046 10.4249 46.4216C12.9596 48.1387 16.1688 48.9972 20.0526 48.9972V39.3695C17.8041 39.3695 15.9848 38.7562 14.5949 37.5298C13.2049 36.3033 12.1215 34.7498 11.3447 32.8692C10.568 30.9886 10.0569 28.9854 9.81165 26.8595C9.56636 24.7337 9.42327 22.7918 9.38239 21.0338H20.1753V0H-5.72205e-05Z" fill="#D62E6A"/>
</svg>
