<svg width="631" height="406" viewBox="0 0 631 406" fill="none" xmlns="http://www.w3.org/2000/svg">
<path d="M585.086 175.159H538.544V220.503H526.566V194.83H467.372V235.478H459.539V140.082H408.097V166.274H381.731V198.846H373.749V178.355H326.979V239.505H313.304V189.788H270.531V152.044H241.445V130.549H207.811V225.902H196.505V186.106H141.08V243.068H133.421V196.579H77.2156V154.689H45.7209V349.778H585.086V175.159Z" fill="#EBEBEB"/>
<path d="M571.506 189.529H579.38V180.859H571.506V189.529Z" fill="white"/>
<path d="M557.858 189.529H565.732V180.859H557.858V189.529Z" fill="white"/>
<path d="M544.197 189.529H552.071V180.859H544.197V189.529Z" fill="white"/>
<path d="M571.506 202.571H579.38V193.901H571.506V202.571Z" fill="white"/>
<path d="M557.858 202.571H565.732V193.901H557.858V202.571Z" fill="white"/>
<path d="M544.197 202.571H552.071V193.901H544.197V202.571Z" fill="white"/>
<path d="M571.506 215.613H579.38V206.943H571.506V215.613Z" fill="white"/>
<path d="M557.858 215.613H565.732V206.943H557.858V215.613Z" fill="white"/>
<path d="M544.197 215.613H552.071V206.943H544.197V215.613Z" fill="white"/>
<path d="M571.506 228.665H579.38V219.996H571.506V228.665Z" fill="white"/>
<path d="M557.858 228.665H565.732V219.996H557.858V228.665Z" fill="white"/>
<path d="M544.197 228.665H552.071V219.996H544.197V228.665Z" fill="white"/>
<path d="M298.862 203.229H306.736V195.996H298.862V203.229Z" fill="white"/>
<path d="M285.215 203.229H293.088V195.996H285.215V203.229Z" fill="white"/>
<path d="M271.553 203.229H279.427V195.996H271.553V203.229Z" fill="white"/>
<path d="M298.862 214.101H306.736V206.868H298.862V214.101Z" fill="white"/>
<path d="M285.215 214.101H293.088V206.868H285.215V214.101Z" fill="white"/>
<path d="M271.553 214.101H279.427V206.868H271.553V214.101Z" fill="white"/>
<path d="M298.862 224.984H306.736V217.75H298.862V224.984Z" fill="white"/>
<path d="M285.215 224.984H293.088V217.75H285.215V224.984Z" fill="white"/>
<path d="M271.553 224.984H279.427V217.75H271.553V224.984Z" fill="white"/>
<path d="M298.862 235.866H306.736V228.633H298.862V235.866Z" fill="white"/>
<path d="M285.215 235.866H293.088V228.633H285.215V235.866Z" fill="white"/>
<path d="M271.553 235.866H279.427V228.633H271.553V235.866Z" fill="white"/>
<path d="M298.862 247.019H306.736V239.786H298.862V247.019Z" fill="white"/>
<path d="M285.215 247.019H293.088V239.786H285.215V247.019Z" fill="white"/>
<path d="M271.553 247.019H279.427V239.786H271.553V247.019Z" fill="white"/>
<path d="M298.862 258.172H306.736V250.938H298.862V258.172Z" fill="white"/>
<path d="M285.215 258.172H293.088V250.938H285.215V258.172Z" fill="white"/>
<path d="M271.553 258.172H279.427V250.938H271.553V258.172Z" fill="white"/>
<path d="M298.862 269.313H306.736V262.08H298.862V269.313Z" fill="white"/>
<path d="M285.215 269.313H293.088V262.08H285.215V269.313Z" fill="white"/>
<path d="M271.553 269.313H279.427V262.08H271.553V269.313Z" fill="white"/>
<path d="M298.862 280.466H306.736V273.232H298.862V280.466Z" fill="white"/>
<path d="M285.215 280.466H293.088V273.232H285.215V280.466Z" fill="white"/>
<path d="M271.553 280.466H279.427V273.232H271.553V280.466Z" fill="white"/>
<path d="M474.505 205.81H519.836V200.39H474.505V205.81Z" fill="white"/>
<path d="M474.505 216.336H519.836V210.916H474.505V216.336Z" fill="white"/>
<path d="M474.505 226.852H519.836V221.432H474.505V226.852Z" fill="white"/>
<path d="M474.505 237.367H519.836V231.947H474.505V237.367Z" fill="white"/>
<path d="M474.505 247.894H519.836V242.474H474.505V247.894Z" fill="white"/>
<path d="M474.505 258.409H519.836V252.989H474.505V258.409Z" fill="white"/>
<path d="M474.505 268.936H519.836V263.516H474.505V268.936Z" fill="white"/>
<path d="M474.505 279.44H519.836V274.02H474.505V279.44Z" fill="white"/>
<path d="M148.105 196.579H189.789V191.159H148.105V196.579Z" fill="white"/>
<path d="M148.105 207.105H189.789V201.685H148.105V207.105Z" fill="white"/>
<path d="M148.105 217.632H189.789V212.212H148.105V217.632Z" fill="white"/>
<path d="M148.105 228.147H189.789V222.727H148.105V228.147Z" fill="white"/>
<path d="M148.105 238.663H189.789V233.243H148.105V238.663Z" fill="white"/>
<path d="M148.105 249.189H189.789V243.769H148.105V249.189Z" fill="white"/>
<path d="M148.105 259.705H189.789V254.285H148.105V259.705Z" fill="white"/>
<path d="M148.105 270.231H189.789V264.811H148.105V270.231Z" fill="white"/>
<path d="M148.105 280.218H189.789V274.798H148.105V280.218Z" fill="white"/>
<path d="M148.105 290.215H189.789V284.795H148.105V290.215Z" fill="white"/>
<path d="M148.105 300.212H189.789V294.792H148.105V300.212Z" fill="white"/>
<path d="M148.105 310.199H189.789V304.779H148.105V310.199Z" fill="white"/>
<path d="M148.105 320.196H189.789V314.776H148.105V320.196Z" fill="white"/>
<path d="M80.7285 209.286H124.754V203.866H80.7285V209.286Z" fill="white"/>
<path d="M80.7285 219.812H124.754V214.393H80.7285V219.812Z" fill="white"/>
<path d="M80.7285 230.339H124.754V224.919H80.7285V230.339Z" fill="white"/>
<path d="M80.7285 240.854H124.754V235.434H80.7285V240.854Z" fill="white"/>
<path d="M80.7285 251.37H124.754V245.95H80.7285V251.37Z" fill="white"/>
<path d="M80.7285 261.896H124.754V256.477H80.7285V261.896Z" fill="white"/>
<path d="M80.7285 272.412H124.754V266.992H80.7285V272.412Z" fill="white"/>
<path d="M80.7285 282.938H124.754V277.518H80.7285V282.938Z" fill="white"/>
<path d="M80.7285 292.353H124.754V286.933H80.7285V292.353Z" fill="white"/>
<path d="M80.7285 301.767H124.754V296.347H80.7285V301.767Z" fill="white"/>
<path d="M80.7285 311.181H124.754V305.761H80.7285V311.181Z" fill="white"/>
<path d="M346.064 188.503H360.061V183.267H346.064V188.503Z" fill="white"/>
<path d="M346.064 198.663H360.061V193.426H346.064V198.663Z" fill="white"/>
<path d="M346.064 208.822H360.061V203.586H346.064V208.822Z" fill="white"/>
<path d="M346.064 218.981H360.061V213.745H346.064V218.981Z" fill="white"/>
<path d="M346.064 229.14H360.061V223.904H346.064V229.14Z" fill="white"/>
<path d="M346.064 239.3H360.061V234.063H346.064V239.3Z" fill="white"/>
<path d="M346.064 249.459H360.061V244.223H346.064V249.459Z" fill="white"/>
<path d="M346.064 259.618H360.061V254.382H346.064V259.618Z" fill="white"/>
<path d="M327.019 188.503H341.017V183.267H327.019V188.503Z" fill="white"/>
<path d="M327.019 198.663H341.017V193.426H327.019V198.663Z" fill="white"/>
<path d="M327.019 208.822H341.017V203.586H327.019V208.822Z" fill="white"/>
<path d="M327.019 218.981H341.017V213.745H327.019V218.981Z" fill="white"/>
<path d="M327.019 229.14H341.017V223.904H327.019V229.14Z" fill="white"/>
<path d="M327.019 239.3H341.017V234.063H327.019V239.3Z" fill="white"/>
<path d="M327.019 249.459H341.017V244.223H327.019V249.459Z" fill="white"/>
<path d="M327.019 259.618H341.017V254.382H327.019V259.618Z" fill="white"/>
<path d="M437.142 153.836H451.732V145.577H437.142V153.836Z" fill="white"/>
<path d="M415.406 153.836H429.996V145.577H415.406V153.836Z" fill="white"/>
<path d="M437.142 165.96H451.732V157.701H437.142V165.96Z" fill="white"/>
<path d="M415.406 165.96H429.996V157.701H415.406V165.96Z" fill="white"/>
<path d="M437.142 178.095H451.732V169.836H437.142V178.095Z" fill="white"/>
<path d="M415.406 178.095H429.996V169.836H415.406V178.095Z" fill="white"/>
<path d="M437.142 190.22H451.732V181.961H437.142V190.22Z" fill="white"/>
<path d="M415.406 190.22H429.996V181.961H415.406V190.22Z" fill="white"/>
<path d="M437.142 202.355H451.732V194.096H437.142V202.355Z" fill="white"/>
<path d="M415.406 202.355H429.996V194.096H415.406V202.355Z" fill="white"/>
<path d="M437.142 214.49H451.732V206.231H437.142V214.49Z" fill="white"/>
<path d="M415.406 214.49H429.996V206.231H415.406V214.49Z" fill="white"/>
<path d="M437.142 226.614H451.732V218.355H437.142V226.614Z" fill="white"/>
<path d="M415.406 226.614H429.996V218.355H415.406V226.614Z" fill="white"/>
<path d="M437.142 238.749H451.732V230.49H437.142V238.749Z" fill="white"/>
<path d="M415.406 238.749H429.996V230.49H415.406V238.749Z" fill="white"/>
<path d="M388.447 178.095H403.037V169.836H388.447V178.095Z" fill="white"/>
<path d="M388.447 190.22H403.037V181.961H388.447V190.22Z" fill="white"/>
<path d="M388.447 202.355H403.037V194.096H388.447V202.355Z" fill="white"/>
<path d="M388.447 214.49H403.037V206.231H388.447V214.49Z" fill="white"/>
<path d="M388.447 226.614H403.037V218.355H388.447V226.614Z" fill="white"/>
<path d="M388.447 238.749H403.037V230.49H388.447V238.749Z" fill="white"/>
<path d="M437.142 250.733H451.732V242.474H437.142V250.733Z" fill="white"/>
<path d="M415.406 250.733H429.996V242.474H415.406V250.733Z" fill="white"/>
<path d="M388.447 250.733H403.037V242.474H388.447V250.733Z" fill="white"/>
<path d="M437.142 262.706H451.732V254.447H437.142V262.706Z" fill="white"/>
<path d="M415.406 262.706H429.996V254.447H415.406V262.706Z" fill="white"/>
<path d="M388.447 262.706H403.037V254.447H388.447V262.706Z" fill="white"/>
<path d="M437.142 274.69H451.732V266.431H437.142V274.69Z" fill="white"/>
<path d="M415.406 274.69H429.996V266.431H415.406V274.69Z" fill="white"/>
<path d="M388.447 274.69H403.037V266.431H388.447V274.69Z" fill="white"/>
<path d="M437.142 286.674H451.732V278.415H437.142V286.674Z" fill="white"/>
<path d="M415.406 286.674H429.996V278.415H415.406V286.674Z" fill="white"/>
<path d="M388.447 286.674H403.037V278.415H388.447V286.674Z" fill="white"/>
<path d="M437.142 298.658H451.732V290.399H437.142V298.658Z" fill="white"/>
<path d="M415.406 298.658H429.996V290.399H415.406V298.658Z" fill="white"/>
<path d="M388.447 298.658H403.037V290.399H388.447V298.658Z" fill="white"/>
<path d="M256.721 164.589H264.595V157.356H256.721V164.589Z" fill="white"/>
<path d="M243.074 164.589H250.947V157.356H243.074V164.589Z" fill="white"/>
<path d="M256.721 175.472H264.595V168.239H256.721V175.472Z" fill="white"/>
<path d="M243.074 175.472H250.947V168.239H243.074V175.472Z" fill="white"/>
<path d="M256.721 186.355H264.595V179.121H256.721V186.355Z" fill="white"/>
<path d="M243.074 186.355H250.947V179.121H243.074V186.355Z" fill="white"/>
<path d="M256.721 197.248H264.595V190.015H256.721V197.248Z" fill="white"/>
<path d="M243.074 197.248H250.947V190.015H243.074V197.248Z" fill="white"/>
<path d="M256.721 208.401H264.595V201.167H256.721V208.401Z" fill="white"/>
<path d="M243.074 208.401H250.947V201.167H243.074V208.401Z" fill="white"/>
<path d="M256.721 219.542H264.595V212.309H256.721V219.542Z" fill="white"/>
<path d="M243.074 219.542H250.947V212.309H243.074V219.542Z" fill="white"/>
<path d="M256.721 230.695H264.595V223.462H256.721V230.695Z" fill="white"/>
<path d="M243.074 230.695H250.947V223.462H243.074V230.695Z" fill="white"/>
<path d="M256.721 241.848H264.595V234.614H256.721V241.848Z" fill="white"/>
<path d="M243.074 241.848H250.947V234.614H243.074V241.848Z" fill="white"/>
<path d="M256.721 253.119H264.595V245.885H256.721V253.119Z" fill="white"/>
<path d="M243.074 253.119H250.947V245.885H243.074V253.119Z" fill="white"/>
<path d="M256.721 264.379H264.595V257.146H256.721V264.379Z" fill="white"/>
<path d="M243.074 264.379H250.947V257.146H243.074V264.379Z" fill="white"/>
<path d="M256.721 275.651H264.595V268.417H256.721V275.651Z" fill="white"/>
<path d="M243.074 275.651H250.947V268.417H243.074V275.651Z" fill="white"/>
<path d="M256.721 286.933H264.595V279.699H256.721V286.933Z" fill="white"/>
<path d="M243.074 286.933H250.947V279.699H243.074V286.933Z" fill="white"/>
<path d="M64.4025 167.051H72.2761V158.533H64.4025V167.051Z" fill="white"/>
<path d="M50.7682 167.051H58.6418V158.533H50.7682V167.051Z" fill="white"/>
<path d="M64.4025 179.877H72.2761V171.359H64.4025V179.877Z" fill="white"/>
<path d="M50.7682 179.877H58.6418V171.359H50.7682V179.877Z" fill="white"/>
<path d="M64.4025 192.692H72.2761V184.174H64.4025V192.692Z" fill="white"/>
<path d="M50.7682 192.692H58.6418V184.174H50.7682V192.692Z" fill="white"/>
<path d="M64.4025 205.518H72.2761V197H64.4025V205.518Z" fill="white"/>
<path d="M50.7682 205.518H58.6418V197H50.7682V205.518Z" fill="white"/>
<path d="M64.4025 218.657H72.2761V210.139H64.4025V218.657Z" fill="white"/>
<path d="M50.7682 218.657H58.6418V210.139H50.7682V218.657Z" fill="white"/>
<path d="M64.4025 231.796H72.2761V223.278H64.4025V231.796Z" fill="white"/>
<path d="M50.7682 231.796H58.6418V223.278H50.7682V231.796Z" fill="white"/>
<path d="M64.4025 244.925H72.2761V236.406H64.4025V244.925Z" fill="white"/>
<path d="M50.7682 244.925H58.6418V236.406H50.7682V244.925Z" fill="white"/>
<path d="M64.4025 258.074H72.2761V249.556H64.4025V258.074Z" fill="white"/>
<path d="M50.7682 258.074H58.6418V249.556H50.7682V258.074Z" fill="white"/>
<path d="M64.4025 271.354H72.2761V262.835H64.4025V271.354Z" fill="white"/>
<path d="M50.7682 271.354H58.6418V262.835H50.7682V271.354Z" fill="white"/>
<path d="M64.4025 284.623H72.2761V276.104H64.4025V284.623Z" fill="white"/>
<path d="M50.7682 284.623H58.6418V276.104H50.7682V284.623Z" fill="white"/>
<path d="M64.4025 297.902H72.2761V289.384H64.4025V297.902Z" fill="white"/>
<path d="M50.7682 297.902H58.6418V289.384H50.7682V297.902Z" fill="white"/>
<path d="M64.4025 311.181H72.2761V302.663H64.4025V311.181Z" fill="white"/>
<path d="M50.7682 311.181H58.6418V302.663H50.7682V311.181Z" fill="white"/>
<path d="M227.515 164.589H235.388V157.356H227.515V164.589Z" fill="white"/>
<path d="M213.867 164.589H221.741V157.356H213.867V164.589Z" fill="white"/>
<path d="M227.515 153.437H235.388V146.203H227.515V153.437Z" fill="white"/>
<path d="M213.867 153.437H221.741V146.203H213.867V153.437Z" fill="white"/>
<path d="M227.515 142.284H235.388V135.051H227.515V142.284Z" fill="white"/>
<path d="M213.867 142.284H221.741V135.051H213.867V142.284Z" fill="white"/>
<path d="M227.515 175.472H235.388V168.239H227.515V175.472Z" fill="white"/>
<path d="M213.867 175.472H221.741V168.239H213.867V175.472Z" fill="white"/>
<path d="M227.515 186.355H235.388V179.121H227.515V186.355Z" fill="white"/>
<path d="M213.867 186.355H221.741V179.121H213.867V186.355Z" fill="white"/>
<path d="M227.515 197.248H235.388V190.015H227.515V197.248Z" fill="white"/>
<path d="M213.867 197.248H221.741V190.015H213.867V197.248Z" fill="white"/>
<path d="M227.515 208.401H235.388V201.167H227.515V208.401Z" fill="white"/>
<path d="M213.867 208.401H221.741V201.167H213.867V208.401Z" fill="white"/>
<path d="M227.515 219.542H235.388V212.309H227.515V219.542Z" fill="white"/>
<path d="M213.867 219.542H221.741V212.309H213.867V219.542Z" fill="white"/>
<path d="M227.515 230.695H235.388V223.462H227.515V230.695Z" fill="white"/>
<path d="M213.867 230.695H221.741V223.462H213.867V230.695Z" fill="white"/>
<path d="M227.515 241.848H235.388V234.614H227.515V241.848Z" fill="white"/>
<path d="M213.867 241.848H221.741V234.614H213.867V241.848Z" fill="white"/>
<path d="M227.515 253.119H235.388V245.885H227.515V253.119Z" fill="white"/>
<path d="M213.867 253.119H221.741V245.885H213.867V253.119Z" fill="white"/>
<path d="M227.515 264.379H235.388V257.146H227.515V264.379Z" fill="white"/>
<path d="M213.867 264.379H221.741V257.146H213.867V264.379Z" fill="white"/>
<path d="M227.515 275.651H235.388V268.417H227.515V275.651Z" fill="white"/>
<path d="M213.867 275.651H221.741V268.417H213.867V275.651Z" fill="white"/>
<path d="M227.515 286.933H235.388V279.699H227.515V286.933Z" fill="white"/>
<path d="M213.867 286.933H221.741V279.699H213.867V286.933Z" fill="white"/>
<path d="M579.353 115.002H434.437C434.437 115.002 448.812 83.52 470.925 83.52C493.039 83.52 499.957 105.253 499.957 105.253C499.957 105.253 514.883 93.4418 527.144 93.4418C539.406 93.4418 550.025 109.042 550.025 109.042C550.025 109.042 567.374 100.654 579.353 115.002Z" fill="#EBEBEB"/>
<path d="M498.247 52.74H430.521C430.521 52.74 445.649 35.1528 457.574 35.1528C469.498 35.1528 473.025 46.8776 473.025 46.8776C473.025 46.8776 481.437 41.4039 489.176 42.3863C496.915 43.3688 498.247 52.74 498.247 52.74Z" fill="#EBEBEB"/>
<path d="M183.369 105.631H51.468C51.468 105.631 69.5303 73.2422 88.8578 71.2557C108.185 69.2692 117.418 95.2882 117.418 95.2882C117.418 95.2882 129.882 86.079 139.68 86.079C149.478 86.079 157.056 98.214 157.056 98.214C157.056 98.214 176.639 89.9009 183.369 105.631Z" fill="#EBEBEB"/>
<path d="M308.741 25.5549H219.628C219.628 25.5549 234.931 2.11619 251.54 1.8031C268.148 1.49001 276.87 19.5414 276.87 19.5414C276.87 19.5414 302.698 2.88273 308.741 25.5549Z" fill="#EBEBEB"/>
<path d="M369.591 405.886C490.784 405.886 589.03 400.67 589.03 394.237C589.03 387.803 490.784 382.588 369.591 382.588C248.398 382.588 150.151 387.803 150.151 394.237C150.151 400.67 248.398 405.886 369.591 405.886Z" fill="#EBEBEB"/>
<path d="M630.807 349.778L551.95 350.037L473.106 350.134L315.404 350.307L157.702 350.134L78.8577 350.037L0 349.778L78.8577 349.508L157.702 349.411L315.404 349.238L473.106 349.411L551.95 349.508L630.807 349.778Z" fill="#263238"/>
<path d="M305.565 182.792C328.338 201.793 396.751 286.36 402.081 288.887C402.081 288.887 402.081 344.196 363.978 333.151C325.875 322.107 290.948 222.878 283.492 191.245C279.562 174.543 286.964 167.288 305.565 182.792Z" fill="#D3766A"/>
<path d="M299.764 248.174L369.591 241.804C369.591 241.804 326.279 195.715 303.896 179.261C280.558 162.117 269.118 164.524 279.939 197C290.814 229.669 299.764 248.174 299.764 248.174Z" fill="#D62E6A"/>
<path d="M296.48 217.664C295.713 219.209 295.223 220.834 295.026 222.489C297.462 219.789 298.979 216.626 299.428 213.313C298.182 214.638 297.189 216.104 296.48 217.664ZM335.7 218.927C333.779 218.31 331.758 217.917 329.697 217.761C333.057 219.717 336.997 220.934 341.124 221.291C339.474 220.29 337.646 219.493 335.7 218.927ZM325.296 240.714C324.475 239.191 323.387 237.769 322.066 236.492C322.375 238.132 322.973 239.728 323.843 241.232C324.638 242.764 325.718 244.191 327.046 245.464C326.744 243.822 326.155 242.223 325.296 240.714ZM284.326 170.538C283.976 169.944 283.626 169.361 283.223 168.778C282.744 168.74 282.261 168.74 281.783 168.778C282.106 169.566 282.469 170.322 282.873 171.078C283.681 172.607 284.765 174.033 286.09 175.31C285.786 173.66 285.193 172.053 284.326 170.538ZM364.799 236.762L363.453 237.194C361.548 237.852 359.768 238.72 358.164 239.774C360.216 239.53 362.214 239.054 364.099 238.36C364.638 238.166 365.163 237.961 365.687 237.734L364.799 236.762ZM310.962 192.271C309.062 192.924 307.286 193.789 305.686 194.84C307.739 194.604 309.738 194.131 311.622 193.437C313.524 192.782 315.3 191.913 316.898 190.856C314.835 191.094 312.827 191.57 310.935 192.271H310.962ZM306.278 192.368C306.199 192.411 306.123 192.458 306.05 192.508H306.292C306.292 192.508 306.251 192.4 306.251 192.368H306.278Z" fill="white"/>
<path d="M303.116 238.101C304.744 237.799 306.453 237.68 308.109 237.496L313.25 236.924C316.709 236.535 320.182 236.19 323.654 235.845C330.599 235.197 337.544 234.517 344.503 233.966C346.414 233.815 348.339 233.664 350.25 233.545C352.161 233.426 354.288 233.426 356.306 233.307C356.428 233.307 356.428 233.448 356.306 233.459C354.597 233.664 352.901 233.977 351.192 234.193C349.483 234.409 347.666 234.603 345.902 234.776C342.443 235.132 338.958 235.456 335.485 235.769C328.648 236.363 321.797 236.989 314.933 237.475L309.199 237.863C307.194 238.004 305.161 238.241 303.142 238.23C303.127 238.226 303.113 238.218 303.102 238.208C303.092 238.197 303.085 238.185 303.082 238.172C303.079 238.159 303.081 238.145 303.087 238.133C303.093 238.12 303.103 238.109 303.116 238.101Z" fill="#263238"/>
<path opacity="0.1" d="M333.641 245.086L299.778 248.174C299.778 248.174 290.827 229.669 279.939 196.999C275.349 183.223 274.77 174.856 277.408 171.088L333.641 245.086Z" fill="black"/>
<path d="M319.132 363.37H212.925C212.05 360.628 211.202 357.972 210.354 355.273C209.385 352.218 208.43 349.238 207.515 346.334C207.313 345.686 207.097 345.038 206.895 344.401C206.196 342.177 205.509 340.018 204.836 337.923C204.432 336.639 204.029 335.376 203.638 334.123C203.248 332.871 202.831 331.597 202.44 330.377C202.333 330.053 202.239 329.729 202.131 329.416L201.808 328.336L201.404 327.073C201.256 326.631 201.121 326.199 200.987 325.767C200.718 324.946 200.462 324.137 200.22 323.348C199.843 322.182 199.479 321.038 199.129 319.926C198.981 319.44 198.82 318.954 198.672 318.479C198.416 317.702 198.174 316.946 197.945 316.201C197.784 315.705 197.635 315.219 197.487 314.744C196.859 312.786 196.276 310.951 195.738 309.238C195.59 308.784 195.455 308.342 195.307 307.91C195.078 307.165 194.849 306.452 194.634 305.751C194.482 305.319 194.347 304.898 194.23 304.487C193.759 303.019 193.329 301.68 192.965 300.504C192.857 300.19 192.763 299.888 192.669 299.597C192.427 298.819 192.198 298.128 192.01 297.513C191.929 297.265 191.861 297.027 191.781 296.811L191.565 296.131C191.565 295.98 191.471 295.829 191.431 295.699L191.242 295.116C191.242 295.023 191.215 294.936 191.162 294.857L190.919 294.091H294.3C294.3 294.091 297.705 303.505 303.156 318.684C304.26 321.772 305.457 325.162 306.736 328.649C310.357 338.776 314.583 350.587 319.132 363.37Z" fill="#37474F"/>
<path d="M230.314 363.37H227.623C223.693 350.321 219.884 337.247 216.196 324.147C215.298 320.959 214.401 317.77 213.504 314.582L213.262 313.686C213.257 313.655 213.267 313.623 213.289 313.597C213.311 313.572 213.344 313.553 213.381 313.545C213.419 313.537 213.459 313.541 213.494 313.555C213.529 313.568 213.556 313.592 213.571 313.621C213.571 313.718 213.638 313.815 213.679 313.912C214.872 317.338 216.061 320.768 217.246 324.201C221.795 337.222 226.151 350.278 230.314 363.37Z" fill="#263238"/>
<path d="M290.948 294.101L286.386 312.455L282.644 327.483L276.278 353.092L275.618 355.716L274.528 360.088L273.68 363.37H212.912C212.05 360.617 211.189 357.972 210.354 355.273C209.385 352.218 208.43 349.238 207.515 346.334C207.313 345.686 207.097 345.038 206.895 344.401C206.196 342.177 205.509 340.018 204.836 337.923C204.432 336.639 204.029 335.376 203.638 334.123C203.248 332.871 202.831 331.597 202.44 330.377C202.333 330.053 202.239 329.729 202.131 329.416L201.808 328.336L201.404 327.073C201.256 326.631 201.121 326.199 200.987 325.767C200.718 324.946 200.462 324.137 200.22 323.348C199.843 322.182 199.479 321.038 199.129 319.926C198.968 319.429 198.82 318.954 198.672 318.479C198.416 317.702 198.174 316.946 197.945 316.201C197.784 315.705 197.635 315.219 197.487 314.744C196.859 312.786 196.276 310.951 195.738 309.238C195.59 308.784 195.455 308.342 195.307 307.91C195.078 307.165 194.849 306.452 194.634 305.751C194.482 305.319 194.347 304.898 194.23 304.487C193.759 303.019 193.329 301.68 192.965 300.504C192.857 300.19 192.763 299.888 192.669 299.597C192.427 298.819 192.198 298.128 192.01 297.513C191.929 297.265 191.861 297.027 191.781 296.811L191.565 296.131C191.565 295.98 191.471 295.829 191.431 295.699L191.242 295.116C191.242 295.023 191.215 294.936 191.162 294.857L190.919 294.091L290.948 294.101Z" fill="#263238"/>
<path d="M290.962 294.069C290.962 294.522 290.531 299.467 289.535 307.025C289.252 309.184 288.916 311.645 288.526 314.236C287.92 318.328 287.18 322.873 286.238 327.613C284.649 335.937 282.577 345.017 279.885 353.891C278.929 357.13 277.879 360.25 276.762 363.349H143.314C144.889 347.036 146.329 332.277 147.473 320.649C149.075 304.282 150.165 294.037 150.165 294.037H271.217L290.962 294.069Z" fill="#37474F"/>
<path d="M290.679 303.904C290.531 307.737 290.329 311.559 290.02 315.37C289.697 319.505 289.226 323.629 288.553 327.753C288.553 327.904 288.553 328.055 288.485 328.207C287.857 332.072 287.135 335.926 286.318 339.769C285.551 343.354 284.972 347.219 283.007 350.566C282.261 351.849 281.198 352.999 279.885 353.945C278.683 354.827 277.21 355.438 275.618 355.716C275.357 355.768 275.092 355.804 274.824 355.824H274.595C274.644 355.846 274.684 355.879 274.711 355.92C274.737 355.96 274.748 356.005 274.743 356.05C274.743 357.335 274.743 358.641 274.555 359.915C274.555 359.969 274.555 360.023 274.555 360.077C274.393 361.157 274.138 362.291 273.882 363.392H271.594V363.327C271.998 362.118 272.334 360.898 272.711 359.678C273.088 358.458 273.626 357.216 273.99 355.953C274.01 355.906 274.047 355.864 274.097 355.834C272.645 355.89 271.206 355.588 269.974 354.969C268.742 354.349 267.776 353.442 267.206 352.369C266.632 350.727 266.595 348.994 267.099 347.338C267.516 345.178 267.92 342.954 268.337 340.763C269.117 336.736 270.127 332.752 271.029 328.746L271.432 326.922C273.222 318.771 275.093 310.62 277.341 302.544C277.422 302.209 277.516 301.875 277.61 301.54C277.704 301.205 278.122 301.378 278.095 301.594C278.027 302.134 277.96 302.673 277.879 303.224C277.485 306.326 277.036 309.414 276.533 312.487C275.887 316.104 275.443 319.742 274.811 323.359C274.595 324.59 274.38 325.821 274.151 327.051C273.115 333 272.038 338.927 270.773 344.876C270.181 347.629 268.081 352.563 272.98 353.416C274.112 353.617 275.296 353.499 276.332 353.081C278.513 352.027 280.144 350.373 280.921 348.428C282.133 345.188 283.011 341.873 283.546 338.517C284.353 334.918 285.071 331.287 285.699 327.624C286.507 323.082 287.35 318.544 288.23 314.01C288.669 311.699 289.118 309.389 289.575 307.078L290.221 303.839C290.235 303.613 290.679 303.678 290.679 303.904Z" fill="#263238"/>
<path d="M172.588 332.363C178.145 332.317 183.674 331.719 189.048 330.582C191.525 330.074 193.975 329.438 196.411 328.801C198.824 328.266 201.084 327.357 203.06 326.123C206.801 323.532 208.537 319.462 210.166 315.834C211.934 311.75 213.368 307.577 214.46 303.343C214.46 303.138 214.89 303.213 214.904 303.408C215.033 308.196 214.275 312.973 212.656 317.583C211.31 321.502 209.507 325.864 205.563 328.606C201.619 331.348 195.792 332.514 190.475 333.033C184.514 333.589 178.488 333.524 172.547 332.838C172.469 332.834 172.396 332.805 172.344 332.757C172.292 332.71 172.266 332.648 172.272 332.585C172.277 332.522 172.313 332.463 172.373 332.421C172.432 332.38 172.509 332.359 172.588 332.363Z" fill="#263238"/>
<path d="M163.314 303.473C163.018 309.461 162.704 315.456 162.372 321.459C161.61 335.43 160.771 349.4 159.855 363.37H157.352C158.501 349.371 159.707 335.379 160.973 321.394C161.52 315.413 162.085 309.436 162.668 303.462C162.67 303.393 162.706 303.328 162.768 303.28C162.83 303.233 162.913 303.207 162.998 303.208C163.084 303.209 163.165 303.238 163.225 303.288C163.284 303.337 163.316 303.404 163.314 303.473Z" fill="#263238"/>
<path d="M313.937 338.409L132.896 327.397C132.896 327.397 169.317 211.607 241.23 169.037C259.615 158.165 279.737 165.14 288.795 173.269C311.81 193.977 314.475 337.945 313.937 338.409Z" fill="#D62E6A"/>
<path d="M249.602 174.306C248.842 175.849 248.353 177.47 248.148 179.121C249.387 177.802 250.384 176.348 251.109 174.802C251.869 173.259 252.358 171.638 252.563 169.987C251.328 171.308 250.332 172.762 249.602 174.306ZM229.951 236.773C229.177 238.316 228.692 239.942 228.511 241.599C230.936 238.895 232.447 235.733 232.899 232.422C231.663 233.752 230.67 235.218 229.951 236.773ZM165.266 263.559C164.5 265.104 164.011 266.729 163.812 268.385C166.248 265.684 167.765 262.521 168.214 259.208C166.988 260.543 165.997 262.007 165.266 263.559ZM217.474 303.019C216.693 304.557 216.203 306.18 216.021 307.834C218.445 305.13 219.957 301.969 220.408 298.657C219.174 299.99 218.186 301.46 217.474 303.019ZM296.48 217.642C295.713 219.187 295.223 220.812 295.026 222.468C297.462 219.768 298.979 216.605 299.428 213.291C298.18 214.623 297.186 216.097 296.48 217.664V217.642ZM264.259 296.185C263.476 297.723 262.981 299.346 262.792 301C264.029 299.682 265.022 298.228 265.739 296.682C266.505 295.14 266.994 293.519 267.193 291.866C265.96 293.185 264.971 294.639 264.259 296.185ZM199.022 214.705C198.254 216.247 197.765 217.868 197.568 219.521C200.008 216.823 201.521 213.658 201.956 210.344C200.716 211.674 199.728 213.144 199.022 214.705ZM271.352 193.977C269.432 193.355 267.41 192.962 265.349 192.811C266.994 193.797 268.807 194.59 270.733 195.164C272.655 195.789 274.683 196.181 276.749 196.33C275.101 195.341 273.283 194.548 271.352 193.977ZM291.864 246.025C289.943 245.406 287.921 245.013 285.861 244.859C287.503 245.85 289.316 246.643 291.244 247.213C293.164 247.836 295.186 248.232 297.247 248.39C295.603 247.41 293.789 246.628 291.864 246.069V246.025ZM297.368 308.234C295.447 307.618 293.425 307.225 291.366 307.068C293.007 308.062 294.821 308.859 296.749 309.432C298.672 310.045 300.693 310.438 302.752 310.598C301.101 309.626 299.289 308.845 297.368 308.277V308.234ZM168.496 303.116C166.575 302.499 164.553 302.107 162.493 301.95C165.853 303.906 169.793 305.123 173.92 305.481C172.26 304.503 170.433 303.721 168.496 303.159V303.116ZM215.079 263.17C213.158 262.551 211.136 262.155 209.076 261.993C210.72 262.986 212.533 263.786 214.459 264.368C216.384 264.978 218.404 265.37 220.462 265.534C218.815 264.555 217.002 263.77 215.079 263.202V263.17ZM284.326 170.505C284.138 170.182 283.949 169.868 283.748 169.555C283.088 169.156 282.402 168.767 281.661 168.389C281.995 169.294 282.399 170.181 282.873 171.045C283.681 172.575 284.765 174 286.09 175.277C285.783 173.639 285.189 172.043 284.326 170.538V170.505ZM231.418 204.082C230.607 202.554 229.523 201.128 228.201 199.85C228.848 203.143 230.566 206.241 233.181 208.832C232.885 207.188 232.291 205.588 231.418 204.082ZM278.135 331.834C277.323 330.309 276.245 328.884 274.932 327.602C275.23 329.244 275.819 330.844 276.682 332.352C277.449 333.772 278.439 335.107 279.629 336.326H279.844C279.534 334.773 278.959 333.261 278.135 331.834ZM260.948 256.595C260.129 255.07 259.046 253.645 257.731 252.363C258.4 255.649 260.11 258.742 262.697 261.345C262.399 259.703 261.81 258.103 260.948 256.595ZM137.634 313.966C137.553 314.193 137.473 314.42 137.378 314.636C137.553 314.787 137.715 314.949 137.876 315.1C137.823 314.729 137.742 314.362 137.634 313.999V313.966ZM191.471 285.162C190.654 283.639 189.571 282.218 188.254 280.941C188.905 284.23 190.622 287.324 193.234 289.912C192.913 288.279 192.306 286.691 191.431 285.194L191.471 285.162ZM203.019 326.728C202.202 325.202 201.119 323.777 199.802 322.495C200.469 325.787 202.184 328.885 204.782 331.489C204.466 329.855 203.858 328.266 202.979 326.771L203.019 326.728ZM293.559 276.719C291.659 277.377 289.883 278.246 288.283 279.3C290.331 279.057 292.326 278.581 294.205 277.885C296.114 277.234 297.896 276.365 299.495 275.305C297.426 275.552 295.413 276.039 293.519 276.752L293.559 276.719ZM150.757 283.024L150.07 284.514C151.522 283.952 152.879 283.245 154.108 282.409C152.953 282.53 151.816 282.747 150.717 283.057L150.757 283.024ZM243.06 318.997C241.157 319.647 239.381 320.512 237.784 321.567C239.836 321.327 241.834 320.854 243.72 320.163C245.621 319.502 247.397 318.63 248.996 317.572C246.925 317.817 244.91 318.308 243.02 319.03L243.06 318.997ZM160.515 328.628L159.586 328.984L162.749 329.178C164.071 328.643 165.309 327.983 166.437 327.213C164.374 327.466 162.366 327.954 160.474 328.66L160.515 328.628ZM192.225 239.85C190.329 240.515 188.554 241.383 186.949 242.43C191.051 241.899 194.913 240.527 198.16 238.446C196.092 238.69 194.079 239.174 192.184 239.882L192.225 239.85ZM238.632 281.2C236.73 281.859 234.953 282.731 233.356 283.791C237.462 283.262 241.326 281.885 244.568 279.796C242.501 280.044 240.488 280.527 238.592 281.232L238.632 281.2ZM262.859 224.357C260.961 225.019 259.186 225.887 257.583 226.938C261.685 226.416 265.545 225.042 268.781 222.954C266.704 223.198 264.683 223.682 262.778 224.39L262.859 224.357Z" fill="white"/>
<path d="M278.539 197.464C268.095 196.222 257.489 179.315 255.658 167.785C255.537 166.986 271.809 142.079 274.353 136.886C274.878 135.806 311.164 157.788 311.164 157.788C311.164 157.788 301.743 167.418 297.342 176.519C297.032 177.275 288.633 198.651 278.539 197.464Z" fill="#D3766A"/>
<path d="M311.218 157.788C311.218 157.788 301.796 167.418 297.382 176.508C297.301 176.692 296.763 178.031 295.874 179.941C277.22 172.384 269.615 158.889 266.547 149.982C270.073 144.314 273.357 138.991 274.407 136.886C274.932 135.817 311.218 157.788 311.218 157.788Z" fill="#263238"/>
<path d="M282.738 96.4323C272.119 106.289 261.5 141.841 267.57 152.767C276.385 168.595 299.872 178.106 318.876 167.99C337.356 158.176 350.169 111.644 342.538 100.978C331.313 85.2581 298.405 81.8789 282.738 96.4323Z" fill="#D3766A"/>
<path d="M311.11 125.312C309.764 125.399 308.418 125.312 307.072 125.312C305.644 125.468 304.191 125.24 302.941 124.664C302.592 124.421 302.353 124.093 302.26 123.73C302.168 123.367 302.227 122.99 302.429 122.656C302.955 122.047 303.673 121.562 304.511 121.251C305.349 120.94 306.275 120.814 307.194 120.886C309.081 120.797 310.943 121.274 312.416 122.224C312.728 122.46 312.949 122.762 313.052 123.096C313.156 123.429 313.138 123.779 313 124.105C312.862 124.43 312.611 124.717 312.276 124.931C311.941 125.145 311.536 125.277 311.11 125.312Z" fill="#263238"/>
<path d="M309.926 130.527C309.926 130.43 309.657 130.602 309.63 130.71C309.132 133.14 308.042 135.86 305.121 136.227C305.027 136.227 305 136.357 305.121 136.368C308.526 136.519 309.926 132.902 309.926 130.527Z" fill="#263238"/>
<path d="M307.853 127.569C303.075 126.489 300.76 134.252 305.161 135.234C309.562 136.217 311.851 128.465 307.853 127.569Z" fill="#263238"/>
<path d="M327.288 133.517C327.288 133.431 327.49 133.679 327.463 133.777C326.656 136.152 326.225 138.991 328.688 140.254C328.769 140.254 328.688 140.416 328.621 140.384C325.431 139.434 326.05 135.677 327.288 133.517Z" fill="#263238"/>
<path d="M330.707 131.531C335.606 132.157 333.681 139.963 329.146 139.38C324.61 138.797 326.602 131.002 330.707 131.531Z" fill="#263238"/>
<path d="M335.673 127.688C334.437 127.227 333.232 126.711 332.066 126.144C330.698 125.738 329.538 124.978 328.769 123.984C328.6 123.637 328.58 123.255 328.712 122.897C328.843 122.54 329.119 122.227 329.496 122.009C331.151 121.145 333.062 121.544 334.758 122.214C336.487 122.846 337.864 123.969 338.621 125.366C338.78 125.695 338.816 126.054 338.723 126.399C338.631 126.743 338.414 127.059 338.101 127.306C337.787 127.553 337.39 127.721 336.958 127.789C336.527 127.856 336.08 127.821 335.673 127.688Z" fill="#263238"/>
<path d="M299.912 151.31C300.451 152.011 300.935 152.918 301.998 153.199C303.121 153.393 304.281 153.393 305.404 153.199C305.426 153.197 305.449 153.201 305.469 153.211C305.488 153.22 305.504 153.234 305.513 153.251C305.522 153.268 305.524 153.286 305.519 153.304C305.514 153.322 305.502 153.338 305.484 153.35C304.918 153.738 304.231 153.997 303.496 154.097C302.762 154.198 302.007 154.138 301.312 153.922C300.739 153.68 300.269 153.306 299.962 152.848C299.655 152.391 299.525 151.87 299.589 151.353C299.589 151.213 299.831 151.202 299.912 151.31Z" fill="#263238"/>
<path d="M305.188 144.735C305.668 145.828 306.424 146.83 307.408 147.679C308.392 148.528 309.584 149.205 310.908 149.669C312.059 150.085 313.278 150.369 314.529 150.511C314.763 150.553 315.002 150.575 315.242 150.575C315.471 150.587 315.7 150.587 315.929 150.575C316.095 150.584 316.26 150.546 316.397 150.47C316.534 150.394 316.634 150.282 316.682 150.154C316.689 150.068 316.689 149.982 316.682 149.895V149.679C317.288 147.844 317.907 144.994 317.907 144.994C318.647 145.49 322.47 147.866 322.699 146.883C324.489 138.786 326.467 129.782 326.117 121.415C326.117 121.355 326.088 121.297 326.035 121.254C325.982 121.212 325.91 121.188 325.835 121.188C325.76 121.188 325.688 121.212 325.635 121.254C325.582 121.297 325.552 121.355 325.552 121.415C323.452 129.145 323.062 137.123 321.097 144.918C319.781 144.051 318.317 143.338 316.75 142.802C316.4 142.802 315.686 148.33 315.323 149.129C315.326 149.157 315.326 149.186 315.323 149.215C311.285 148.87 308.701 147.369 305.565 144.573C305.363 144.389 305.067 144.508 305.188 144.735Z" fill="#263238"/>
<path d="M313.452 149.312C311.794 150.386 309.819 151.099 307.719 151.385C306.568 151.514 305.397 151.351 304.367 150.921C302.133 149.96 302.591 148.19 303.479 146.764C303.962 146.013 304.554 145.31 305.242 144.67C307.29 146.881 310.167 148.508 313.452 149.312Z" fill="#263238"/>
<path d="M307.719 151.385C306.568 151.514 305.397 151.351 304.367 150.921C302.133 149.96 302.591 148.19 303.479 146.764C305.982 147.466 308.095 149.356 307.719 151.385Z" fill="#FF97B8"/>
<path d="M346.602 114.818C327.759 121.145 308.701 103.644 308.701 103.644C306.542 106.3 303.371 108.326 299.66 109.419C295.949 110.512 291.898 110.615 288.108 109.712C288.108 109.712 279.064 131.596 271.688 130.279C260.477 128.357 264.959 97.1988 270.033 91.779C275.107 86.3593 285.067 86.3809 285.067 86.3809C285.067 86.3809 286.964 81.8357 295.013 78.7371C303.896 75.3039 328.661 86.0678 328.661 86.0678C330.909 83.4819 333.883 81.3556 337.342 79.8599C338.178 79.4834 339.099 79.2468 340.052 79.1645C341.005 79.0821 341.968 79.1557 342.884 79.3808C343.8 79.6059 344.65 79.9778 345.381 80.474C346.113 80.9702 346.712 81.5804 347.141 82.2675C345.302 83.6862 343.889 85.4213 343.009 87.3418C339.98 93.69 346.67 94.802 348.164 88.8317C348.813 86.6159 348.45 84.2869 347.141 82.2675C351.448 78.9207 357.168 78.5536 359.9 81.1879C364.92 86.0138 362.282 109.571 346.602 114.818Z" fill="#263238"/>
<path d="M300.383 142.543C298.065 141.947 296.002 140.84 294.429 139.35C292.856 137.859 291.836 136.044 291.486 134.111C291.136 132.178 291.47 130.205 292.449 128.417C293.428 126.629 295.014 125.098 297.025 123.997C299.036 122.896 301.392 122.27 303.825 122.191C306.258 122.112 308.67 122.582 310.785 123.549C312.901 124.515 314.636 125.938 315.793 127.657C316.95 129.375 317.482 131.32 317.328 133.269C317.201 134.852 316.626 136.391 315.647 137.769C314.667 139.147 313.309 140.327 311.676 141.221C310.042 142.115 308.176 142.699 306.22 142.928C304.263 143.157 302.267 143.025 300.383 142.543ZM307.813 124.027C306.94 123.801 306.036 123.659 305.121 123.606C302.252 123.443 299.414 124.164 297.185 125.622C294.956 127.08 293.505 129.165 293.127 131.452C292.749 133.739 293.474 136.056 295.152 137.929C296.831 139.802 299.337 141.091 302.16 141.532C304.983 141.974 307.91 141.535 310.343 140.305C312.776 139.075 314.532 137.146 315.253 134.913C315.974 132.68 315.606 130.31 314.223 128.287C312.841 126.264 310.548 124.741 307.813 124.027Z" fill="#D62E6A"/>
<path d="M329.065 146.905C324.408 145.501 321.985 140.427 323.681 135.126C324.404 132.59 326.104 130.301 328.54 128.584C329.524 127.788 330.749 127.211 332.095 126.908C333.44 126.606 334.861 126.589 336.217 126.858C337.573 127.128 338.819 127.676 339.833 128.447C340.846 129.219 341.593 130.189 341.999 131.261C343.14 133.697 343.305 136.358 342.47 138.872C340.748 144.443 335.135 148.146 329.953 147.11C329.65 147.063 329.353 146.995 329.065 146.905ZM336.346 128.389L335.714 128.238C334.626 128.062 333.502 128.098 332.436 128.345C331.37 128.591 330.394 129.039 329.59 129.652C327.44 131.183 325.939 133.213 325.296 135.461C323.802 140.298 326.023 144.918 330.29 145.76C334.556 146.603 339.213 143.364 340.707 138.538C341.456 136.31 341.315 133.95 340.303 131.79C339.978 131.032 339.458 130.338 338.776 129.752C338.094 129.166 337.266 128.702 336.346 128.389Z" fill="#D62E6A"/>
<path d="M316.615 134.392L315.781 133.172C318.028 132.168 322.928 131.132 325.391 134.252L323.91 134.986C321.716 132.19 316.817 134.295 316.615 134.392Z" fill="#D62E6A"/>
<path d="M259.171 128.022L257.825 127.158C258.337 126.651 262.872 122.192 266.789 122.3C270.463 122.408 292.886 127.698 293.842 127.968L293.344 129.307C286.911 127.774 269.575 123.768 266.735 123.693C264.124 123.617 260.396 126.791 259.171 128.022Z" fill="#D62E6A"/>
<path d="M276.493 128.249C276.493 128.249 272.873 114.343 265.389 114.937C257.906 115.531 256.641 133.42 262.63 137.987C263.345 138.615 264.212 139.12 265.177 139.472C266.142 139.825 267.186 140.017 268.246 140.037C269.306 140.057 270.36 139.905 271.345 139.59C272.329 139.275 273.225 138.803 273.976 138.203L276.493 128.249Z" fill="#D3766A"/>
<path d="M265.187 120.076C265.08 120.022 264.986 120.141 265.066 120.216C269.198 123.542 269.831 128.152 269.629 132.621C268.929 130.635 267.341 129.123 264.111 129.696C263.949 129.696 263.99 129.922 264.111 129.955C265.107 130.029 266.05 130.35 266.808 130.875C267.565 131.399 268.1 132.101 268.337 132.881C268.732 134.182 268.953 135.514 268.996 136.854C268.996 137.296 269.939 137.383 269.992 136.854C269.986 136.818 269.986 136.781 269.992 136.746C272.873 131.758 271.742 122.926 265.187 120.076Z" fill="#263238"/>
<path d="M368.77 225.847C372.175 218.657 451.127 231.677 447.977 242.7C436.416 283.078 404.194 319.16 396.052 327.408C385.365 338.204 364.099 335.807 356.347 329.265C345.108 319.775 365.405 232.973 368.77 225.847Z" fill="#D3766A"/>
<path d="M363.211 245.669C361.456 249.539 360.066 253.509 359.052 257.545C357.908 261.54 356.912 265.556 356.105 269.594C354.508 277.762 353.609 286.008 353.413 294.274C353.265 298.895 353.413 303.505 353.413 308.126C353.413 308.234 353.628 308.223 353.628 308.126C353.628 304.034 353.938 299.91 354.355 295.829C354.772 291.748 355.284 287.591 355.943 283.499C357.222 275.456 358.635 267.424 360.452 259.445C360.954 257.207 361.479 254.976 362.027 252.752C362.605 250.441 363.265 248.142 363.642 245.799C363.642 245.626 363.305 245.475 363.211 245.669Z" fill="#263238"/>
<path d="M349.725 112.044C349.205 117.542 348.18 123.002 346.656 128.378C346.4 129.296 346.118 130.235 345.835 131.164C344.705 134.856 343.359 138.57 341.797 142.144C341.438 143.007 341.062 143.86 340.667 144.702C335.889 155.056 329.576 163.963 322.47 167.742C320.665 168.712 318.75 169.544 316.75 170.225C306.562 165.459 298.055 158.692 292.027 150.561C285.999 142.43 282.65 133.202 282.294 123.747L280.141 123.272C280.477 122.851 280.827 122.419 281.164 121.965C281.5 121.512 281.917 120.94 282.281 120.4C282.82 106.5 289.819 93.2644 301.904 83.2932C318.822 79.644 339.079 84.8586 347.598 96.7669C349.671 99.7143 350.304 105.264 349.725 112.044Z" fill="#D3766A"/>
<path d="M314.26 122.538C312.83 122.597 311.396 122.597 309.966 122.538C308.311 122.538 306.992 122.635 305.579 121.847C305.198 121.588 304.938 121.234 304.84 120.842C304.742 120.45 304.813 120.043 305.04 119.688C306.077 118.219 308.095 117.841 310.087 117.809C312.086 117.714 314.058 118.218 315.619 119.223C315.965 119.469 316.214 119.791 316.335 120.15C316.455 120.508 316.443 120.887 316.298 121.239C316.153 121.591 315.883 121.902 315.521 122.133C315.159 122.364 314.72 122.505 314.26 122.538Z" fill="#263238"/>
<path d="M313.008 128.119C313.008 128.022 312.725 128.206 312.698 128.303C312.174 130.883 311.016 133.766 307.92 134.154C307.826 134.154 307.799 134.295 307.92 134.306C311.527 134.414 313.008 130.581 313.008 128.119Z" fill="#263238"/>
<path d="M310.814 124.934C305.754 123.801 303.304 132.006 307.988 133.053C312.672 134.1 315.054 125.884 310.814 124.934Z" fill="#263238"/>
<path d="M331.407 131.229C331.407 131.142 331.622 131.401 331.582 131.509C330.72 134.025 330.236 137.026 332.928 138.419C333.008 138.419 332.928 138.592 332.86 138.559C329.442 137.491 330.088 133.518 331.407 131.229Z" fill="#263238"/>
<path d="M335.027 129.123C340.209 129.793 338.163 138.063 333.358 137.447C328.554 136.832 330.68 128.562 335.027 129.123Z" fill="#263238"/>
<path d="M340.277 125.053C338.931 124.589 337.76 123.974 336.468 123.423C335.025 122.998 333.796 122.206 332.968 121.167C332.792 120.8 332.771 120.397 332.91 120.02C333.049 119.643 333.339 119.314 333.735 119.083C335.499 118.165 337.517 118.586 339.307 119.299C341.122 119.972 342.56 121.16 343.345 122.635C343.498 122.977 343.526 123.346 343.425 123.7C343.324 124.054 343.098 124.377 342.776 124.632C342.453 124.886 342.046 125.061 341.603 125.136C341.16 125.21 340.7 125.182 340.277 125.053Z" fill="#263238"/>
<path d="M302.402 150.079C302.981 150.813 303.492 151.774 304.623 152.076C305.806 152.287 307.033 152.287 308.217 152.076C308.24 152.076 308.264 152.081 308.284 152.091C308.304 152.101 308.32 152.115 308.33 152.132C308.34 152.15 308.344 152.169 308.34 152.188C308.337 152.206 308.327 152.224 308.311 152.238C307.71 152.651 306.981 152.925 306.201 153.031C305.421 153.138 304.62 153.073 303.883 152.843C303.278 152.585 302.783 152.188 302.459 151.704C302.136 151.219 301.999 150.669 302.066 150.122C302.052 149.971 302.308 149.971 302.402 150.079Z" fill="#263238"/>
<path d="M308.001 143.105C308.503 144.265 309.3 145.329 310.34 146.23C311.38 147.131 312.641 147.85 314.044 148.341C315.263 148.782 316.555 149.08 317.88 149.226C318.132 149.272 318.389 149.297 318.647 149.302C318.885 149.314 319.123 149.314 319.361 149.302C319.538 149.311 319.713 149.272 319.86 149.192C320.006 149.112 320.115 148.994 320.168 148.859C320.182 148.773 320.182 148.686 320.168 148.6V148.373C320.814 146.43 321.514 143.407 321.514 143.407C322.295 143.936 326.346 146.451 326.575 145.415C328.473 136.778 330.613 127.288 330.209 118.424C330.209 118.361 330.178 118.301 330.122 118.256C330.067 118.212 329.991 118.187 329.913 118.187C329.834 118.187 329.759 118.212 329.703 118.256C329.648 118.301 329.617 118.361 329.617 118.424C327.382 126.608 326.925 135.061 324.893 143.256C323.452 142.362 321.861 141.635 320.168 141.096C319.805 141.096 319.038 146.948 318.661 147.801C318.667 147.83 318.667 147.859 318.661 147.887C314.448 147.52 311.649 145.944 308.338 142.964C308.176 142.748 307.867 142.867 308.001 143.105Z" fill="#263238"/>
<path d="M316.75 147.963C314.992 149.09 312.901 149.834 310.68 150.122C309.464 150.262 308.224 150.088 307.14 149.625C304.758 148.611 305.256 146.732 306.198 145.231C306.706 144.434 307.329 143.687 308.055 143.007C310.219 145.362 313.266 147.099 316.75 147.963Z" fill="#263238"/>
<path d="M310.666 150.155C309.45 150.295 308.211 150.121 307.126 149.658C304.744 148.643 305.242 146.765 306.184 145.264C308.822 146.009 311.07 147.995 310.666 150.155Z" fill="#FF97B8"/>
<path d="M351.851 111.428C351.138 111.666 350.425 111.871 349.725 112.044C330.451 116.837 311.703 99.5848 311.703 99.5848C309.426 102.407 306.072 104.563 302.143 105.73C298.213 106.898 293.918 107.014 289.899 106.063C287.808 111.003 285.248 115.807 282.24 120.432C282.602 111.252 285.784 102.285 291.504 94.3279C297.223 86.3707 305.304 79.6692 315.027 74.8182C321.166 76.5462 327.14 78.6319 332.901 81.0584C335.287 78.3198 338.44 76.0679 342.107 74.4835C342.991 74.0842 343.966 73.8328 344.974 73.7447C345.982 73.6565 347.002 73.7333 347.972 73.9705C348.943 74.2077 349.843 74.6003 350.618 75.1246C351.393 75.6488 352.028 76.2939 352.484 77.0206C350.541 78.5352 349.047 80.3798 348.11 82.4187C344.906 89.134 351.986 90.3108 353.561 83.995C354.256 81.6454 353.874 79.1735 352.484 77.0314C357.047 73.501 363.103 73.1123 365.943 75.9518C371.246 80.9397 368.474 105.868 351.851 111.428Z" fill="#263238"/>
<path d="M315.902 121.793C313.662 120.295 310.885 119.41 307.974 119.266C307.098 119.221 306.219 119.246 305.35 119.342C303.168 119.568 301.086 120.211 299.278 121.216C297.47 122.221 295.989 123.559 294.959 125.118C294.662 125.554 294.409 126.009 294.205 126.478C293.738 127.476 293.461 128.524 293.384 129.588C293.197 132.038 294.029 134.468 295.752 136.497C297.475 138.526 299.989 140.037 302.9 140.794C303.993 141.07 305.122 141.24 306.265 141.302H307.126C310.426 141.307 313.618 140.363 316.125 138.642C318.631 136.92 320.285 134.535 320.787 131.92C320.787 131.607 320.882 131.293 320.909 130.97C320.936 130.646 320.909 130.494 320.909 130.268C320.904 128.646 320.453 127.046 319.587 125.581C318.722 124.116 317.463 122.822 315.902 121.793ZM306.373 139.822C303.479 139.674 300.752 138.685 298.702 137.04C296.651 135.395 295.419 133.207 295.234 130.886C295.049 128.565 295.925 126.269 297.698 124.429C299.47 122.588 302.019 121.328 304.865 120.886C305.853 120.732 306.862 120.681 307.867 120.735C308.855 120.786 309.831 120.935 310.774 121.177C311.975 121.487 313.107 121.95 314.125 122.548C316.217 123.763 317.76 125.491 318.522 127.471C319.283 129.45 319.222 131.575 318.347 133.524C317.472 135.473 315.831 137.142 313.671 138.278C311.512 139.414 308.95 139.956 306.373 139.822Z" fill="#D62E6A"/>
<path d="M346.898 128.843L346.656 128.378C345.832 126.86 344.415 125.599 342.618 124.783C342.038 124.525 341.418 124.329 340.774 124.2C339.837 124.017 338.865 123.973 337.908 124.071C335.956 124.29 334.127 124.961 332.645 126.003C331.532 126.764 330.57 127.656 329.792 128.648C329.198 129.384 328.698 130.165 328.298 130.98C328.023 131.506 327.798 132.047 327.625 132.6C327.576 132.709 327.536 132.821 327.504 132.934C326.706 135.382 326.79 137.962 327.746 140.373C328.145 141.49 328.848 142.521 329.804 143.393C330.761 144.265 331.947 144.956 333.278 145.415C333.56 145.501 333.843 145.566 334.139 145.631C335.254 145.834 336.408 145.856 337.533 145.697C338.659 145.537 339.733 145.199 340.694 144.702C344.122 142.905 346.537 140.104 347.423 136.897C348.302 134.234 348.118 131.417 346.898 128.843ZM345.552 136.54C344.94 138.646 343.634 140.581 341.77 142.144C340.893 142.964 339.762 143.585 338.492 143.945C337.221 144.305 335.855 144.391 334.529 144.195C330.007 143.299 327.652 138.408 329.24 133.291C329.919 130.911 331.504 128.761 333.776 127.137C334.631 126.488 335.667 126.013 336.798 125.752C337.93 125.491 339.122 125.451 340.276 125.636C340.5 125.679 340.721 125.733 340.936 125.798C341.91 126.131 342.787 126.624 343.51 127.245C344.234 127.866 344.787 128.602 345.135 129.404C345.423 129.972 345.639 130.562 345.781 131.164C346.211 132.945 346.152 134.78 345.606 136.54H345.552Z" fill="#D62E6A"/>
<path d="M320.088 132.157L319.213 130.862C321.595 129.782 326.79 128.702 329.388 132.049L327.827 132.826C325.498 129.825 320.316 132.06 320.088 132.157Z" fill="#D62E6A"/>
<path d="M295.955 125.355L295.43 126.77L294.205 126.478C291.177 125.766 286.709 124.729 282.254 123.736L280.1 123.261C280.437 122.84 280.787 122.408 281.123 121.955L282.213 122.203C287.597 123.391 292.806 124.61 294.959 125.118L295.955 125.355Z" fill="#D62E6A"/>
<g opacity="0.3">
<path opacity="0.3" d="M366.549 176.476C353.139 178.845 339.155 177.971 326.365 173.965C313.574 169.958 302.552 162.999 294.693 153.968C286.833 144.937 282.488 134.239 282.209 123.227C281.929 112.215 285.726 101.384 293.121 92.1031C300.515 82.8224 311.174 75.5091 323.751 71.088C336.327 66.6669 350.255 65.3365 363.774 67.2653C377.292 69.194 389.795 74.2952 399.699 81.9236C409.603 89.552 416.465 99.3652 419.417 110.122C421.378 117.263 421.566 124.645 419.971 131.845C418.375 139.044 415.027 145.922 410.118 152.083C405.208 158.245 398.834 163.571 391.358 167.756C383.883 171.941 375.452 174.904 366.549 176.476Z" fill="white"/>
<path opacity="0.3" d="M290.733 148.827C299.527 161.703 314.302 171.275 331.845 175.462C349.389 179.649 368.284 178.112 384.423 171.186L290.733 148.827Z" fill="#EBEBEB"/>
<path opacity="0.3" d="M292.725 92.6536L421.045 123.283C421.157 118.86 420.615 114.442 419.43 110.122C418.088 105.166 415.891 100.384 412.903 95.9141L318.176 73.2959C307.768 77.8963 299.005 84.5612 292.725 92.6536Z" fill="#EBEBEB"/>
<path opacity="0.3" d="M282.711 128.594L404.935 157.744C407.847 154.939 410.412 151.912 412.593 148.708L282.442 117.636C282.067 121.287 282.157 124.959 282.711 128.594Z" fill="#EBEBEB"/>
<path opacity="0.3" d="M288.283 99.3905L420.184 130.883C420.319 130.214 420.44 129.544 420.534 128.875L289.333 97.5659C288.97 98.1597 288.606 98.7643 288.283 99.3905Z" fill="#EBEBEB"/>
<path opacity="0.3" d="M340.142 67.1852L398.69 81.1555C397.169 80.0219 395.567 78.9963 393.911 77.9167L346.36 66.5806C344.276 66.6964 342.2 66.8982 340.142 67.1852Z" fill="#EBEBEB"/>
</g>
<path d="M376.104 245.315L393.928 242.167L376.667 179.295L358.843 182.444L376.104 245.315Z" fill="#EBEBEB"/>
<path d="M427.008 108.783C423.725 96.8259 416.096 85.918 405.085 77.4387C394.075 68.9594 380.176 63.2896 365.148 61.1462C350.12 59.0028 334.638 60.4821 320.658 65.3971C306.678 70.3121 294.829 78.4419 286.609 88.7587C278.389 99.0754 274.168 111.116 274.479 123.357C274.79 135.598 279.619 147.49 288.355 157.53C297.092 167.57 309.344 175.306 323.562 179.76C337.779 184.214 353.325 185.187 368.231 182.554C388.218 179.019 405.636 169.262 416.658 155.429C427.679 141.595 431.402 124.817 427.008 108.783ZM366.549 176.476C353.139 178.847 339.155 177.975 326.363 173.97C313.571 169.966 302.548 163.008 294.686 153.977C286.824 144.947 282.477 134.249 282.196 123.237C281.914 112.224 285.71 101.392 293.103 92.1108C300.497 82.8291 311.155 75.5146 323.731 71.0924C336.308 66.6702 350.236 65.3388 363.755 67.2668C377.275 69.1947 389.778 74.2953 399.683 81.9236C409.588 89.5518 416.451 99.3649 419.403 110.122C421.365 117.263 421.554 124.643 419.959 131.843C418.364 139.042 415.017 145.919 410.109 152.08C405.201 158.242 398.828 163.568 391.354 167.753C383.88 171.939 375.451 174.903 366.549 176.476Z" fill="#455A64"/>
<path d="M383.467 289.556L410.426 284.795L395.136 229.054L368.164 233.815L383.467 289.556Z" fill="#263238"/>
<path d="M395.23 114.797C395.202 114.733 395.179 114.668 395.163 114.602C394.84 113.674 395.513 115.498 395.271 114.894C395.029 114.289 394.679 113.436 394.342 112.735C393.164 110.23 391.724 107.81 390.035 105.501C389.806 105.177 389.551 104.853 389.322 104.529C389.241 104.421 389.914 105.285 389.322 104.605L388.851 104.022C388.232 103.277 387.599 102.543 386.94 101.863C385.482 100.283 383.895 98.7824 382.188 97.3714L380.95 96.3782C380.385 95.9355 381.61 96.864 380.829 96.2918L380.048 95.7196C379.039 95.0179 378.003 94.3377 376.926 93.6899C375.849 93.0421 374.571 92.3296 373.346 91.7142C372.78 91.4335 372.215 91.1636 371.636 90.9045C370.64 90.4402 372.067 91.0664 371.327 90.7641L370.264 90.3323C367.048 89.0632 363.685 88.0507 360.223 87.3093H360.048L359.671 87.2445L358.123 86.9746C357.114 86.8127 356.118 86.6723 355.095 86.5536C352.957 86.3082 350.806 86.1497 348.648 86.0785C348.049 86.0239 347.469 85.8752 346.941 85.6409C346.414 85.4065 345.949 85.0911 345.574 84.7126C344.815 83.9483 344.466 82.9736 344.604 82.0029C344.741 81.0323 345.353 80.1451 346.306 79.5367C347.259 78.9283 348.474 78.6484 349.684 78.7586C363.437 79.0999 376.587 83.36 386.778 90.7749C393.549 95.8607 398.842 102.079 402.283 108.988C403.071 110.531 403.727 112.114 404.248 113.728C404.434 114.692 404.137 115.677 403.42 116.466C402.704 117.255 401.627 117.784 400.426 117.938C399.227 118.068 398.012 117.821 397.034 117.25C396.057 116.679 395.391 115.827 395.177 114.872L395.23 114.797Z" fill="white"/>
<path d="M397.115 125.647C397.251 126.357 397.648 127.018 398.253 127.548C398.859 128.077 399.647 128.45 400.517 128.619C401.387 128.789 402.301 128.747 403.141 128.5C403.982 128.253 404.712 127.811 405.24 127.23C405.767 126.649 406.067 125.956 406.103 125.239C406.139 124.521 405.908 123.811 405.44 123.198C404.972 122.586 404.288 122.099 403.474 121.798C402.661 121.498 401.754 121.399 400.87 121.512C399.69 121.664 398.633 122.183 397.929 122.958C397.225 123.733 396.933 124.7 397.115 125.647Z" fill="white"/>
<path d="M442.674 255.321C442.674 255.321 461.948 229.907 437.95 205.658C428.071 195.683 404.76 177.793 357.464 180.287C346.239 180.881 330.774 188.104 349.536 192.476C362.861 195.585 372.484 194.322 379.833 197.259C379.833 197.259 361.515 208.325 362.7 217.318C363.225 221.334 363.615 230.112 366.509 238.468C366.509 238.468 370.304 240.627 373.386 240.26C373.386 240.26 381.691 259.478 411.557 265.383L442.674 255.321Z" fill="#D3766A"/>
<path d="M427.815 202.398C420.09 199.925 403.589 194.916 388.313 194.57C371.34 194.192 338.513 197.14 338.311 207.191C338.15 214.565 350.802 214.317 350.802 214.317C350.802 214.317 337.558 217.826 339.24 224.508C340.761 230.598 350.532 229.907 350.532 229.907C350.532 229.907 342.955 233.145 345.835 238.781C349.294 245.561 364.597 237.701 375.445 242.106C377.949 243.143 427.815 202.398 427.815 202.398Z" fill="#D3766A"/>
<path d="M390.776 209.016C383.036 207.656 364.449 208.174 350.963 214.079C350.654 214.209 350.613 214.468 350.963 214.393C363.921 211.361 377.289 209.599 390.776 209.146C390.897 209.146 390.897 209.092 390.776 209.016Z" fill="#263238"/>
<path d="M389.833 222.749C382.996 222.122 363.871 223.342 350.465 229.701C350.156 229.842 350.142 230.101 350.465 230.015C363.218 226.449 376.435 224.055 389.86 222.878C389.882 222.875 389.901 222.866 389.914 222.852C389.926 222.837 389.931 222.82 389.928 222.803C389.924 222.785 389.912 222.77 389.894 222.76C389.877 222.75 389.855 222.746 389.833 222.749Z" fill="#263238"/>
<path d="M417.384 267.035C410.533 265.731 403.919 263.724 397.707 261.065C391.451 258.349 385.915 254.682 381.408 250.268C380.062 248.919 378.716 247.515 377.545 246.079C376.374 244.644 375.082 243.013 373.696 241.588C373.588 241.48 373.332 241.588 373.413 241.685C374.972 244.682 376.893 247.549 379.147 250.247C381.167 252.769 383.583 255.073 386.334 257.102C391.765 260.979 398.201 263.84 405.177 265.48C409.138 266.365 413.193 266.954 417.29 267.24C417.492 267.283 417.573 267.067 417.384 267.035Z" fill="#263238"/>
<path d="M220.92 185.707C186.249 223.051 128.388 320.379 119.881 334.695C114.107 344.412 177.406 369.999 180.085 362.938C183.53 353.891 240.126 234.463 248.054 190.921C252.388 167.051 232.912 172.784 220.92 185.707Z" fill="#D3766A"/>
<path d="M181.794 358.08C180.327 366.879 172.87 384.606 167.325 387.316C161.78 390.026 132.641 389.476 117.957 389.476C103.273 389.476 100.46 386.183 100.635 382.134C100.81 378.086 131.685 377.308 131.685 377.308C131.685 377.308 90.5269 386.723 80.1767 388.31C69.8266 389.897 45.9902 394.679 42.4908 387.802C40.943 384.693 47.4708 381.551 47.4708 381.551C47.4708 381.551 37.4705 383.894 35.8689 379.91C34.0654 375.365 42.0198 372.871 42.0198 372.871C42.0198 372.871 35.7612 373.875 35.6132 370.172C35.344 361.859 74.4834 357.799 74.4834 357.799C74.4834 357.799 44.5232 369.503 43.5272 362.744C42.1813 353.405 103.609 343.16 110.002 339.089C114.654 335.979 119.005 332.59 123.017 328.952L181.794 358.08Z" fill="#D3766A"/>
<path d="M100.85 384.142C100.746 383.569 100.814 382.984 101.048 382.435C101.282 381.887 101.676 381.392 102.196 380.99C103.251 380.214 104.462 379.587 105.776 379.133C108.492 378.207 111.307 377.484 114.188 376.973C119.976 375.797 125.911 374.965 131.82 373.735C125.729 373.661 119.651 374.205 113.731 375.354C110.705 375.911 107.792 376.805 105.076 378.01C103.67 378.63 102.438 379.475 101.456 380.493C100.973 381.008 100.664 381.615 100.558 382.254C100.451 382.893 100.552 383.543 100.85 384.142Z" fill="#263238"/>
<path d="M47.5649 381.508C51.8046 380.677 55.977 379.727 60.1359 378.755C64.2948 377.783 68.4402 376.768 72.5857 375.764L84.9816 372.655C89.1136 371.575 93.2456 370.582 97.418 369.578C93.0865 369.96 88.7921 370.577 84.5644 371.424C80.3113 372.202 76.1389 373.173 71.98 374.188C67.8211 375.203 63.7026 376.347 59.6379 377.557C55.5732 378.766 51.4681 380.04 47.5649 381.508Z" fill="#263238"/>
<path d="M87.4311 361.319C83.4387 361.52 79.4706 361.96 75.5601 362.636C71.636 363.262 67.7583 364.062 63.9448 365.033C60.122 365.984 56.3698 367.108 52.7063 368.401C49.0297 369.662 45.4717 371.134 42.0601 372.806C45.8421 371.726 49.5299 370.593 53.2851 369.567C57.0402 368.542 60.7819 367.527 64.5639 366.598C68.3459 365.67 72.128 364.752 75.937 363.856C79.7459 362.96 83.5683 362.183 87.4311 361.319Z" fill="#263238"/>
<path d="M81.3746 353.459C74.9443 353.875 68.6095 354.963 62.5316 356.698C56.3946 358.329 50.5523 360.601 45.1558 363.457C51.2393 361.718 57.1614 359.883 63.2046 358.264C69.2478 356.644 75.2372 355.046 81.3746 353.459Z" fill="#263238"/>
<path d="M235.658 249.718L165.401 248.163C165.401 248.163 203.692 199.278 224.204 181.345C245.618 162.667 257.273 164.276 249.965 197.367C242.603 230.684 235.658 249.718 235.658 249.718Z" fill="#D62E6A"/>
<path d="M192.184 239.882C190.288 240.547 188.514 241.415 186.908 242.463C191.011 241.931 194.873 240.559 198.12 238.479C196.068 238.715 194.068 239.188 192.184 239.882ZM231.418 204.082C230.607 202.554 229.523 201.128 228.201 199.85C228.848 203.143 230.566 206.241 233.181 208.832C232.885 207.188 232.291 205.588 231.418 204.082ZM199.022 214.705C198.254 216.247 197.765 217.868 197.568 219.521C200.008 216.823 201.521 213.658 201.956 210.344C200.716 211.674 199.728 213.144 199.022 214.705ZM229.978 236.773C229.204 238.316 228.719 239.942 228.538 241.599C230.962 238.895 232.474 235.733 232.926 232.422C231.68 233.751 230.679 235.216 229.951 236.773H229.978ZM250.571 172.589C250.234 173.151 249.925 173.723 249.628 174.306C248.869 175.849 248.38 177.47 248.175 179.121C249.414 177.802 250.411 176.348 251.136 174.802C251.203 174.662 251.257 174.532 251.311 174.392C251.119 173.775 250.862 173.172 250.544 172.589H250.571Z" fill="white"/>
<path d="M231.257 239.915C229.588 239.72 227.878 239.72 226.209 239.656L221.028 239.429C217.546 239.292 214.051 239.181 210.543 239.094C203.544 238.922 196.559 238.727 189.573 238.652C187.649 238.652 185.724 238.652 183.799 238.652C181.875 238.652 179.762 238.814 177.743 238.824C177.622 238.824 177.635 238.975 177.743 238.975C179.466 239.062 181.188 239.267 182.925 239.353C184.661 239.44 186.464 239.526 188.241 239.58C191.74 239.688 195.24 239.785 198.739 239.85C205.617 239.98 212.508 240.131 219.386 240.142H225.227C227.232 240.142 229.265 240.228 231.284 240.088C231.337 240.055 231.364 239.926 231.257 239.915Z" fill="#263238"/>
<path d="M249.279 213.064C249.279 212.957 249.117 212.892 249.05 213C247.747 214.925 246.631 216.928 245.712 218.992C245.954 218.009 246.237 217.027 246.466 216.033C247.233 212.859 247.933 209.664 248.713 206.49C248.705 206.47 248.69 206.454 248.669 206.442C248.649 206.431 248.624 206.424 248.599 206.424C248.574 206.424 248.549 206.431 248.529 206.442C248.508 206.454 248.493 206.47 248.484 206.49C246.667 211.952 244.554 217.361 242.939 222.868C241.324 228.374 239.696 233.88 238.188 239.407C237.367 242.463 236.627 246.274 235.792 249.318C233.76 249.513 231.149 249.318 228.955 249.545C228.767 249.545 228.821 249.815 228.955 249.815C231.27 249.869 234.029 250.29 236.465 250.171C236.775 250.171 242.67 230.533 245.12 221.129C246.627 218.452 248.027 215.774 249.279 213.064Z" fill="#263238"/>
<path d="M299.253 182.533C298.27 185.113 297.153 187.661 295.874 190.155C294.807 192.402 293.496 194.569 291.958 196.633C289.051 200.314 284.582 203.359 278.916 203.348C273.532 203.348 268.606 200.843 265.16 197.647C261.392 194.16 258.888 189.788 256.641 185.577C255.295 182.975 253.949 180.319 252.872 177.631C252.32 176.271 251.742 174.91 251.257 173.529C250.772 172.147 250.355 170.754 249.763 169.404C249.763 169.296 249.467 169.307 249.507 169.404C250.503 172.514 253.397 182.36 254.555 184.865C256.681 189.453 259.077 194.193 262.913 198.058C266.547 201.707 271.486 204.471 277.395 204.924C283.303 205.378 288.364 202.884 291.621 199.127C293.536 196.76 295.031 194.191 296.063 191.494C297.315 188.535 298.364 185.502 299.32 182.468C299.374 182.511 299.253 182.5 299.253 182.533Z" fill="#263238"/>
<path d="M519.796 392.089H423.28L418.973 324.029H519.796V392.089Z" fill="#DBDBDB"/>
<path d="M519.796 324.029L554.467 289.211L582.058 324.029L577.751 392.088H519.796V324.029Z" fill="#C7C7C7"/>
<path d="M452.661 278.155H555.691L592.852 326.782H580.887L555.691 293.119L526.633 330.798H410.466L452.661 278.155Z" fill="#A6A6A6"/>
<path d="M464.599 293.54H442.446L430.628 304.898H456.201L464.599 293.54Z" fill="#C7C7C7"/>
<path d="M447.816 302.954V316.784H435.487V302.954L441.651 296.768L447.816 302.954Z" fill="#DBDBDB"/>
<path d="M447.816 302.944H457.506L447.816 316.784V302.944Z" fill="#C7C7C7"/>
<path d="M444.841 303.17H437.829V312.66H444.841V303.17Z" fill="#FBFAFF"/>
<path d="M440.952 303.829H438.69V306.884H440.952V303.829Z" fill="#EBEBEB"/>
<path d="M443.966 303.829H441.705V306.884H443.966V303.829Z" fill="#EBEBEB"/>
<path d="M440.952 307.435H438.69V311.958H440.952V307.435Z" fill="#EBEBEB"/>
<path d="M443.966 307.435H441.705V311.958H443.966V307.435Z" fill="#EBEBEB"/>
<path d="M518.84 293.54H496.686L485.596 304.898H510.388L518.84 293.54Z" fill="#C7C7C7"/>
<path d="M502.056 302.954V316.784H489.728V302.954L495.892 296.768L502.056 302.954Z" fill="#DBDBDB"/>
<path d="M502.057 302.944H511.761L502.057 316.784V302.944Z" fill="#C7C7C7"/>
<path d="M499.082 303.17H492.07V312.66H499.082V303.17Z" fill="#FBFAFF"/>
<path d="M495.192 303.829H492.931V306.884H495.192V303.829Z" fill="#EBEBEB"/>
<path d="M498.221 303.829H495.959V306.884H498.221V303.829Z" fill="#EBEBEB"/>
<path d="M495.192 307.435H492.931V311.958H495.192V307.435Z" fill="#EBEBEB"/>
<path d="M498.221 307.435H495.959V311.958H498.221V307.435Z" fill="#EBEBEB"/>
<path d="M537.212 276.19H524.883V289.211H537.212V276.19Z" fill="#DBDBDB"/>
<path d="M537.212 276.19H546.903V278.285L537.212 289.211V276.19Z" fill="#C7C7C7"/>
<path d="M537.212 271.764H523.497V276.19H537.212V271.764Z" fill="#C7C7C7"/>
<path d="M547.966 271.764H537.212V276.19H547.966V271.764Z" fill="#A6A6A6"/>
<path d="M448.744 336.369H433.482V357.044H448.744V336.369Z" fill="#FBFAFF"/>
<path d="M440.279 337.805H435.366V344.466H440.279V337.805Z" fill="#EBEBEB"/>
<path d="M446.86 337.805H441.948V344.466H446.86V337.805Z" fill="#EBEBEB"/>
<path d="M440.279 345.665H435.366V355.532H440.279V345.665Z" fill="#EBEBEB"/>
<path d="M446.86 345.665H441.948V355.532H446.86V345.665Z" fill="#EBEBEB"/>
<path d="M505.435 336.369H490.172V357.044H505.435V336.369Z" fill="#FBFAFF"/>
<path d="M496.969 337.805H492.056V344.466H496.969V337.805Z" fill="#EBEBEB"/>
<path d="M503.55 337.805H498.638V344.466H503.55V337.805Z" fill="#EBEBEB"/>
<path d="M496.969 345.665H492.056V355.532H496.969V345.665Z" fill="#EBEBEB"/>
<path d="M503.55 345.665H498.638V355.532H503.55V345.665Z" fill="#EBEBEB"/>
<path d="M448.744 365.098H433.482V385.773H448.744V365.098Z" fill="#FBFAFF"/>
<path d="M440.279 366.534H435.366V373.195H440.279V366.534Z" fill="#EBEBEB"/>
<path d="M446.86 366.534H441.948V373.195H446.86V366.534Z" fill="#EBEBEB"/>
<path d="M440.279 374.393H435.366V384.261H440.279V374.393Z" fill="#EBEBEB"/>
<path d="M446.86 374.393H441.948V384.261H446.86V374.393Z" fill="#EBEBEB"/>
<path d="M505.435 365.098H490.172V385.773H505.435V365.098Z" fill="#FBFAFF"/>
<path d="M496.969 366.534H492.056V373.195H496.969V366.534Z" fill="#EBEBEB"/>
<path d="M503.55 366.534H498.638V373.195H503.55V366.534Z" fill="#EBEBEB"/>
<path d="M496.969 374.393H492.056V384.261H496.969V374.393Z" fill="#EBEBEB"/>
<path d="M503.55 374.393H498.638V384.261H503.55V374.393Z" fill="#EBEBEB"/>
<path d="M477.009 336.369H461.746V357.044H477.009V336.369Z" fill="#FBFAFF"/>
<path d="M468.543 337.805H463.63V344.466H468.543V337.805Z" fill="#EBEBEB"/>
<path d="M475.138 337.805H470.225V344.466H475.138V337.805Z" fill="#EBEBEB"/>
<path d="M468.543 345.665H463.63V355.532H468.543V345.665Z" fill="#EBEBEB"/>
<path d="M475.138 345.665H470.225V355.532H475.138V345.665Z" fill="#EBEBEB"/>
<path d="M477.009 365.238H461.746V385.913H477.009V365.238Z" fill="#FBFAFF"/>
<path d="M468.543 366.663H463.63V373.325H468.543V366.663Z" fill="#EBEBEB"/>
<path d="M475.138 366.663H470.225V373.325H475.138V366.663Z" fill="#EBEBEB"/>
<path d="M468.543 374.534H463.63V384.402H468.543V374.534Z" fill="#EBEBEB"/>
<path d="M475.138 374.534H470.225V384.402H475.138V374.534Z" fill="#EBEBEB"/>
<path d="M547.226 357.044H562.489V336.369H547.226V357.044Z" fill="#FBFAFF"/>
<path d="M560.604 337.805H555.692V344.466H560.604V337.805Z" fill="#EBEBEB"/>
<path d="M554.009 337.805H549.096V344.466H554.009V337.805Z" fill="#EBEBEB"/>
<path d="M560.604 345.665H555.692V355.532H560.604V345.665Z" fill="#EBEBEB"/>
<path d="M554.009 345.665H549.096V355.532H554.009V345.665Z" fill="#EBEBEB"/>
<path d="M547.226 325.087H562.489V307.586H547.226V325.087Z" fill="#FBFAFF"/>
<path d="M560.604 309.011H555.692V315.672H560.604V309.011Z" fill="#EBEBEB"/>
<path d="M554.009 309.011H549.096V315.672H554.009V309.011Z" fill="#EBEBEB"/>
<path d="M560.604 316.946H555.692V323.608H560.604V316.946Z" fill="#EBEBEB"/>
<path d="M554.009 316.946H549.096V323.608H554.009V316.946Z" fill="#EBEBEB"/>
<path d="M545.054 392.215L563.56 392.285L563.719 365.327L545.212 365.257L545.054 392.215Z" fill="#FBFAFF"/>
<path d="M552.447 367.124L552.423 371.161L556.407 371.176L556.431 367.139L552.447 367.124Z" fill="#EBEBEB"/>
<path d="M547.241 367.102L547.217 371.14L551.201 371.155L551.224 367.117L547.241 367.102Z" fill="#EBEBEB"/>
<path d="M550.135 385.821L558.547 385.853L558.553 384.882L550.141 384.85L550.135 385.821Z" fill="#EBEBEB"/>
<path d="M554.938 365.065V369.103H558.922V365.065H554.938Z" fill="#EBEBEB"/>
<path d="M552.433 372.222L552.41 376.26L556.394 376.275L556.417 372.237L552.433 372.222Z" fill="#EBEBEB"/>
<path d="M547.187 372.189L547.163 376.227L551.147 376.242L551.17 372.204L547.187 372.189Z" fill="#EBEBEB"/>
<path d="M557.653 372.244L557.629 376.281L561.613 376.297L561.637 372.259L557.653 372.244Z" fill="#EBEBEB"/>
<path d="M552.406 377.331L552.382 381.369L556.366 381.384L556.39 377.346L552.406 377.331Z" fill="#EBEBEB"/>
<path d="M547.173 377.309L547.149 381.347L551.133 381.362L551.157 377.324L547.173 377.309Z" fill="#EBEBEB"/>
<path d="M557.626 377.353L557.602 381.39L561.586 381.405L561.61 377.368L557.626 377.353Z" fill="#EBEBEB"/>
<path d="M254.164 392.272H168.429L164.593 358.944H254.164V392.272Z" fill="#DBDBDB"/>
<path d="M254.137 358.901L284.932 327.98L309.455 358.901L305.619 392.229H254.137V358.901Z" fill="#C7C7C7"/>
<path d="M194.015 318.199H287.139L321.635 364.957H312.227L285.874 329.762L260.557 364.957H157.379L194.015 318.199Z" fill="#A6A6A6"/>
<path d="M191.256 371.316H177.689V386.863H191.256V371.316Z" fill="#FBFAFF"/>
<path d="M183.719 372.59H179.358V378.507H183.719V372.59Z" fill="#DBDBDB"/>
<path d="M189.573 372.59H185.213V378.507H189.573V372.59Z" fill="#DBDBDB"/>
<path d="M183.719 379.63H179.358V385.546H183.719V379.63Z" fill="#DBDBDB"/>
<path d="M189.573 379.63H185.213V385.546H189.573V379.63Z" fill="#DBDBDB"/>
<path d="M241.082 371.316H227.515V386.863H241.082V371.316Z" fill="#FBFAFF"/>
<path d="M233.545 372.59H229.184V378.507H233.545V372.59Z" fill="#DBDBDB"/>
<path d="M239.399 372.59H235.039V378.507H239.399V372.59Z" fill="#DBDBDB"/>
<path d="M233.545 379.63H229.184V385.546H233.545V379.63Z" fill="#DBDBDB"/>
<path d="M239.399 379.63H235.039V385.546H239.399V379.63Z" fill="#DBDBDB"/>
<path d="M216.25 370.485H201.296V392.272H216.25V370.485Z" fill="#FBFAFF"/>
<path d="M210.381 371.986H207.165V375.246H210.381V371.986Z" fill="#DBDBDB"/>
<path d="M214.608 371.986H211.391V375.246H214.608V371.986Z" fill="#DBDBDB"/>
<path d="M212.171 386.291H205.375V387.079H212.171V386.291Z" fill="#DBDBDB"/>
<path d="M206.155 371.986H202.938V375.246H206.155V371.986Z" fill="#DBDBDB"/>
<path d="M210.381 376.11H207.165V379.37H210.381V376.11Z" fill="#DBDBDB"/>
<path d="M214.608 376.11H211.391V379.37H214.608V376.11Z" fill="#DBDBDB"/>
<path d="M206.155 376.11H202.938V379.37H206.155V376.11Z" fill="#DBDBDB"/>
<path d="M210.381 380.234H207.165V383.495H210.381V380.234Z" fill="#DBDBDB"/>
<path d="M214.608 380.234H211.391V383.495H214.608V380.234Z" fill="#DBDBDB"/>
<path d="M206.155 380.234H202.938V383.495H206.155V380.234Z" fill="#DBDBDB"/>
<path d="M213.719 316.331H202.763V327.894H213.719V316.331Z" fill="#DBDBDB"/>
<path d="M213.719 316.331H222.333V318.188L213.719 327.894V316.331Z" fill="#C7C7C7"/>
<path d="M213.719 312.39H201.539V316.32H213.719V312.39Z" fill="#C7C7C7"/>
<path d="M223.275 312.39H213.719V316.32H223.275V312.39Z" fill="#A6A6A6"/>
<path d="M288.055 392.283H315.861L318.513 369.298H288.055V392.283Z" fill="#C7C7C7"/>
<path d="M288.055 369.297L274.313 364.32L274.622 392.283H288.055V369.297Z" fill="#DBDBDB"/>
<path d="M309.347 375.246H297.651V392.272H309.347V375.246Z" fill="#FBFAFF"/>
<path d="M304.758 376.412H302.241V378.96H304.758V376.412Z" fill="#DBDBDB"/>
<path d="M308.055 376.412H305.538V378.96H308.055V376.412Z" fill="#DBDBDB"/>
<path d="M306.157 386.453H300.841V387.068H306.157V386.453Z" fill="#DBDBDB"/>
<path d="M301.46 376.412H298.943V378.96H301.46V376.412Z" fill="#DBDBDB"/>
<path d="M272.213 363.176H312.618L325.673 371.144H286.884L272.213 363.176Z" fill="#A6A6A6"/>
<path d="M286.884 371.144H272.213V363.176L286.884 371.144Z" fill="#C7C7C7"/>
<path d="M278.203 351.527C278.203 352.627 278.609 353.702 279.372 354.617C280.134 355.532 281.217 356.244 282.485 356.665C283.752 357.085 285.146 357.195 286.491 356.979C287.836 356.764 289.071 356.233 290.04 355.455C291.009 354.676 291.668 353.684 291.934 352.605C292.2 351.526 292.061 350.407 291.534 349.392C291.007 348.376 290.117 347.508 288.975 346.899C287.834 346.289 286.492 345.965 285.121 345.967C283.285 345.97 281.525 346.557 280.228 347.599C278.931 348.642 278.203 350.054 278.203 351.527Z" fill="#FBFAFF"/>
<path d="M279.75 351.527C279.75 352.672 280.317 353.771 281.327 354.581C282.337 355.391 283.706 355.845 285.134 355.845C285.588 355.848 286.041 355.801 286.48 355.705C287.734 355.432 288.822 354.805 289.544 353.939C290.266 353.073 290.574 352.026 290.41 350.992C290.246 349.959 289.622 349.007 288.652 348.314C287.682 347.621 286.433 347.232 285.134 347.219C284.679 347.218 284.227 347.265 283.788 347.36C283.162 347.482 282.572 347.702 282.052 348.007C281.345 348.403 280.767 348.93 280.366 349.542C279.966 350.155 279.754 350.835 279.75 351.527Z" fill="#C7C7C7"/>
<path d="M284.38 356.601H285.874V346.366H284.38V356.601Z" fill="#FBFAFF"/>
<path d="M291.514 352.078V350.879H278.754V352.078H291.514Z" fill="#FBFAFF"/>
<path d="M327.679 392.283H284.353L281.392 366.577H327.679V392.283Z" fill="#D62E6A"/>
<path opacity="0.2" d="M327.679 392.283H284.353L281.392 366.577H327.679V392.283Z" fill="black"/>
<path d="M327.679 366.577L351.434 342.717L370.344 366.577L367.397 392.283H327.679V366.577Z" fill="#D62E6A"/>
<path d="M330.545 369.719H271.755L307.517 333.648H351.676L378.218 369.719H371.475L351.676 345.006L330.545 369.719Z" fill="#D62E6A"/>
<path opacity="0.4" d="M330.545 369.719H271.755L307.517 333.648H351.676L378.218 369.719H371.475L351.676 345.006L330.545 369.719Z" fill="black"/>
<path d="M389.874 301.745H377.626V314.679H389.874V301.745Z" fill="#D62E6A"/>
<path opacity="0.2" d="M389.874 301.745H377.626V314.679H389.874V301.745Z" fill="black"/>
<path d="M399.511 301.745H389.874V314.679H399.511V301.745Z" fill="#D62E6A"/>
<path d="M389.874 297.34H376.253V301.734H389.874V297.34Z" fill="#D62E6A"/>
<path opacity="0.5" d="M389.874 297.34H376.253V301.734H389.874V297.34Z" fill="black"/>
<path d="M400.56 297.34H389.874V301.734H400.56V297.34Z" fill="#D62E6A"/>
<path opacity="0.4" d="M400.56 297.34H389.874V301.734H400.56V297.34Z" fill="black"/>
<path d="M432.916 392.25H337.019L332.726 354.971H432.916V392.25Z" fill="#D62E6A"/>
<path opacity="0.2" d="M432.916 392.25H337.019L332.726 354.971H432.916V392.25Z" fill="black"/>
<path d="M432.917 354.971L467.359 320.369L494.789 354.971L490.495 392.251H432.917V354.971Z" fill="#D62E6A"/>
<path d="M466.941 322.56L495.26 357.691H505.152L467.789 309.389H365.782L314.098 361.697H438.69L466.941 322.56Z" fill="#D62E6A"/>
<path opacity="0.5" d="M466.941 322.56L495.26 357.691H505.152L467.789 309.389H365.782L314.098 361.697H438.69L466.941 322.56Z" fill="black"/>
<path d="M458.408 360.207H473.577V342.814H458.408V360.207Z" fill="#FBFAFF"/>
<path d="M471.706 344.229H466.82V350.847H471.706V344.229Z" fill="#D62E6A"/>
<path d="M465.165 344.229H460.279V350.847H465.165V344.229Z" fill="#D62E6A"/>
<path d="M471.706 352.11H466.82V358.728H471.706V352.11Z" fill="#D62E6A"/>
<path d="M465.165 352.11H460.279V358.728H465.165V352.11Z" fill="#D62E6A"/>
<path d="M362.538 368.801H347.37V386.194H362.538V368.801Z" fill="#FBFAFF"/>
<path d="M354.126 370.226H349.24V376.844H354.126V370.226Z" fill="#D62E6A"/>
<path d="M360.681 370.226H355.795V376.844H360.681V370.226Z" fill="#D62E6A"/>
<path d="M354.126 378.107H349.24V384.725H354.126V378.107Z" fill="#D62E6A"/>
<path d="M360.681 378.107H355.795V384.725H360.681V378.107Z" fill="#D62E6A"/>
<path d="M390.412 368.801H375.244V386.194H390.412V368.801Z" fill="#FBFAFF"/>
<path d="M381.987 370.226H377.101V376.844H381.987V370.226Z" fill="#D62E6A"/>
<path d="M388.541 370.226H383.656V376.844H388.541V370.226Z" fill="#D62E6A"/>
<path d="M381.987 378.107H377.101V384.725H381.987V378.107Z" fill="#D62E6A"/>
<path d="M388.541 378.107H383.656V384.725H388.541V378.107Z" fill="#D62E6A"/>
<path d="M418.273 368.801H403.104V386.194H418.273V368.801Z" fill="#FBFAFF"/>
<path d="M409.861 370.226H404.975V376.844H409.861V370.226Z" fill="#D62E6A"/>
<path d="M416.402 370.226H411.516V376.844H416.402V370.226Z" fill="#D62E6A"/>
<path d="M409.861 378.107H404.975V384.725H409.861V378.107Z" fill="#D62E6A"/>
<path d="M416.402 378.107H411.516V384.725H416.402V378.107Z" fill="#D62E6A"/>
<path d="M457.627 392.24H474.357V367.873H457.627V392.24Z" fill="#FBFAFF"/>
<path d="M467.803 369.557H464.196V373.206H467.803V369.557Z" fill="#D62E6A"/>
<path d="M463.079 369.557H459.471V373.206H463.079V369.557Z" fill="#D62E6A"/>
<path d="M462.19 386.442H469.795V385.557H462.19V386.442Z" fill="#D62E6A"/>
<path d="M472.514 369.557H468.906V373.206H472.514V369.557Z" fill="#D62E6A"/>
<path d="M467.803 374.167H464.196V377.816H467.803V374.167Z" fill="#D62E6A"/>
<path d="M463.079 374.167H459.471V377.816H463.079V374.167Z" fill="#D62E6A"/>
<path d="M472.514 374.167H468.906V377.816H472.514V374.167Z" fill="#D62E6A"/>
<path d="M467.803 378.777H464.196V382.426H467.803V378.777Z" fill="#D62E6A"/>
<path d="M463.079 378.777H459.471V382.426H463.079V378.777Z" fill="#D62E6A"/>
<path d="M472.514 378.777H468.906V382.426H472.514V378.777Z" fill="#D62E6A"/>
<path d="M405.271 321.913H383.252L371.933 333.249H396.859L405.271 321.913Z" fill="#D62E6A"/>
<path opacity="0.4" d="M405.271 321.913H383.252L371.933 333.249H396.859L405.271 321.913Z" fill="black"/>
<path d="M388.595 331.262V345.006H376.334V331.262L382.471 325.119L388.595 331.262Z" fill="#D62E6A"/>
<path opacity="0.2" d="M388.595 331.262V345.006H376.334V331.262L382.471 325.119L388.595 331.262Z" fill="black"/>
<path d="M388.595 331.262H398.232L388.595 345.006V331.262Z" fill="#D62E6A"/>
<path d="M385.621 331.478H378.662V340.903H385.621V331.478Z" fill="#FBFAFF"/>
<path d="M381.771 332.126H379.524V335.16H381.771V332.126Z" fill="#D62E6A"/>
<path d="M384.773 332.126H382.525V335.16H384.773V332.126Z" fill="#D62E6A"/>
<path d="M381.771 335.721H379.524V340.223H381.771V335.721Z" fill="#D62E6A"/>
<path d="M384.773 335.721H382.525V340.223H384.773V335.721Z" fill="#D62E6A"/>
<path d="M532.932 190.651C538.926 194.74 543.386 200.085 545.813 206.089C548.24 212.093 548.539 218.52 546.677 224.652C544.815 230.784 540.864 236.381 535.266 240.816C529.669 245.252 522.644 248.353 514.977 249.772L505.556 265.243L496.417 249.88C489.583 248.705 483.222 246.182 477.911 242.538C473.663 239.64 470.169 236.098 467.628 232.117C465.087 228.135 463.549 223.791 463.101 219.332C462.196 210.327 465.787 201.403 473.085 194.522C480.384 187.641 490.79 183.368 502.016 182.642C513.242 181.916 524.368 184.797 532.945 190.651H532.932Z" fill="white"/>
<path d="M532.932 190.652C538.925 194.741 543.392 200.081 545.839 206.079C546.452 207.571 546.947 209.093 547.32 210.635C547.642 212.186 547.844 213.751 547.926 215.321C548.109 218.47 547.742 221.625 546.835 224.692C545.944 227.767 544.527 230.728 542.623 233.491C541.66 234.868 540.576 236.189 539.379 237.443C538.223 238.722 536.945 239.928 535.557 241.049C529.944 245.583 522.862 248.769 515.112 250.247L515.529 249.988L506.215 265.502L505.542 266.636L504.869 265.502L495.663 250.171L496.229 250.528C488.208 249.133 480.854 245.925 475.035 241.283C469.216 236.641 465.176 230.759 463.394 224.333C461.611 217.908 462.161 211.207 464.976 205.024C467.792 198.84 472.757 193.433 479.283 189.442C484.46 186.33 490.438 184.183 496.78 183.159C503.12 182.129 509.669 182.269 515.931 183.567C522.194 184.865 528.007 187.287 532.932 190.652ZM532.932 190.652C528.041 187.302 522.256 184.898 516.024 183.625C509.792 182.353 503.279 182.244 496.986 183.309C490.694 184.374 484.79 186.584 479.731 189.768C474.671 192.952 470.59 197.026 467.803 201.675C465.024 206.27 463.587 211.314 463.603 216.422C463.682 221.506 465.133 226.515 467.857 231.105C470.618 235.673 474.635 239.678 479.606 242.819C484.587 245.945 490.377 248.137 496.552 249.232L496.955 249.308L497.117 249.599L506.202 264.984H504.856L514.425 249.567L514.547 249.351H514.829C522.438 248.015 529.43 245.001 535.018 240.649C536.406 239.563 537.688 238.394 538.854 237.151C540.059 235.931 541.152 234.643 542.125 233.297C544.076 230.596 545.544 227.689 546.485 224.66C547.461 221.63 547.878 218.502 547.724 215.375C547.654 213.813 547.47 212.256 547.172 210.711C546.808 209.174 546.327 207.656 545.732 206.166C543.333 200.145 538.903 194.775 532.932 190.652Z" fill="#263238"/>
<path d="M516.956 207.947C516.485 207.562 515.962 207.222 515.395 206.932C514.644 206.542 513.856 206.199 513.039 205.906C511.062 205.187 508.945 204.749 506.781 204.611V214.328L507.898 214.511C509.825 214.88 511.726 215.334 513.591 215.871C515.128 216.304 516.575 216.919 517.885 217.696C519.024 218.399 519.945 219.305 520.576 220.341C521.251 221.541 521.578 222.847 521.532 224.163C521.586 225.624 521.208 227.074 520.428 228.395C519.708 229.554 518.657 230.561 517.36 231.332C515.986 232.135 514.439 232.728 512.797 233.081C510.981 233.482 509.108 233.696 507.225 233.718V238.641H504.197V233.62C501.44 233.487 498.721 233.04 496.121 232.293C493.617 231.57 491.272 230.531 489.176 229.216L492.151 224.724C492.713 225.188 493.341 225.597 494.021 225.944C494.933 226.421 495.886 226.843 496.875 227.207C498.038 227.638 499.239 227.999 500.468 228.287C501.788 228.601 503.139 228.821 504.506 228.946V219.229C504.277 219.175 504.022 219.11 503.779 219.067C503.533 219.026 503.29 218.972 503.053 218.905C501.227 218.526 499.429 218.065 497.669 217.523C496.283 217.109 494.991 216.515 493.846 215.763C492.861 215.112 492.074 214.288 491.545 213.356C490.978 212.297 490.707 211.151 490.751 209.998C490.714 208.6 491.053 207.211 491.747 205.928C492.393 204.756 493.348 203.71 494.546 202.862C495.784 201.982 497.218 201.297 498.772 200.843C500.504 200.337 502.317 200.032 504.156 199.936V195.197H507.184V199.936C509.589 200.034 511.958 200.446 514.197 201.156C516.208 201.785 518.112 202.616 519.863 203.628L516.956 207.947ZM497.682 209.156C497.634 209.726 497.767 210.296 498.069 210.813C498.37 211.33 498.83 211.778 499.405 212.114C501.011 212.924 502.777 213.508 504.627 213.842V204.611C502.736 204.574 500.884 205.045 499.365 205.95C498.805 206.35 498.363 206.846 498.072 207.401C497.781 207.955 497.648 208.555 497.682 209.156ZM514.601 224.714C514.636 224.096 514.465 223.482 514.106 222.935C513.746 222.389 513.21 221.929 512.555 221.604C510.768 220.752 508.837 220.112 506.821 219.704V228.978C508.829 229.057 510.825 228.683 512.582 227.898C513.237 227.556 513.769 227.082 514.123 226.523C514.477 225.964 514.642 225.34 514.601 224.714Z" fill="#D62E6A"/>
</svg>
