<svg width="10" height="11" viewBox="0 0 10 11" fill="none" xmlns="http://www.w3.org/2000/svg">
<path d="M9.13669 10.1373C9.04513 9.64029 8.87508 9.18247 8.62655 8.7639C8.37802 8.34532 8.07063 7.98343 7.70438 7.67822C7.33813 7.37301 6.9261 7.1332 6.46828 6.9588C6.01046 6.78439 5.52867 6.69719 5.02289 6.69719C4.6392 6.69719 4.26859 6.74733 3.91105 6.84761C3.55352 6.9479 3.21997 7.08742 2.9104 7.26619C2.60083 7.44495 2.3196 7.66296 2.06671 7.92021C1.81382 8.17746 1.59581 8.46087 1.41269 8.77044C1.22956 9.08001 1.08786 9.41356 0.987574 9.77109C0.88729 10.1286 0.837148 10.4992 0.837148 10.8829H0C0 10.3728 0.0763026 9.87356 0.228908 9.38522C0.381513 8.89688 0.6017 8.44561 0.88947 8.03139C1.17724 7.61718 1.51951 7.24875 1.91629 6.9261C2.31306 6.60344 2.75561 6.3571 3.24395 6.18705C2.99978 6.03009 2.78177 5.84914 2.58993 5.64421C2.39808 5.43929 2.2324 5.21474 2.09287 4.97057C1.95335 4.7264 1.85088 4.46697 1.78548 4.19228C1.72008 3.91759 1.68302 3.63636 1.6743 3.34859C1.6743 2.88642 1.7615 2.45258 1.93591 2.04709C2.11031 1.6416 2.34794 1.28624 2.64879 0.981033C2.94964 0.675823 3.30499 0.436015 3.71485 0.261609C4.1247 0.087203 4.56071 0 5.02289 0C5.48507 0 5.9189 0.087203 6.32439 0.261609C6.72989 0.436015 7.08524 0.673643 7.39045 0.974493C7.69566 1.27534 7.93547 1.6307 8.10988 2.04055C8.28428 2.4504 8.37148 2.88642 8.37148 3.34859C8.37148 3.63636 8.3366 3.91759 8.26684 4.19228C8.19708 4.46697 8.09243 4.7264 7.95291 4.97057C7.81339 5.21474 7.64988 5.43929 7.46239 5.64421C7.27491 5.84914 7.05472 6.03009 6.80183 6.18705C7.23349 6.35274 7.63244 6.57074 7.99869 6.84107C8.36494 7.1114 8.68542 7.42315 8.9601 7.77632C9.23479 8.1295 9.4637 8.51537 9.64683 8.93394C9.82995 9.35252 9.94768 9.79289 10 10.2551L9.62721 10.6344L9.13669 10.1373ZM2.51145 3.34859C2.51145 3.69741 2.57685 4.02224 2.70765 4.32309C2.83846 4.62394 3.01722 4.88991 3.24395 5.12099C3.47068 5.35208 3.73665 5.53303 4.04186 5.66383C4.34707 5.79464 4.67408 5.86004 5.02289 5.86004C5.36734 5.86004 5.69217 5.79464 5.99738 5.66383C6.30259 5.53303 6.56856 5.35426 6.79529 5.12753C7.02202 4.90081 7.20296 4.63484 7.33813 4.32963C7.47329 4.02442 7.5387 3.69741 7.53434 3.34859C7.53434 3.00414 7.46893 2.67931 7.33813 2.3741C7.20732 2.06889 7.02856 1.80292 6.80183 1.57619C6.5751 1.34947 6.30695 1.16852 5.99738 1.03336C5.68781 0.898191 5.36298 0.832788 5.02289 0.837148C4.67408 0.837148 4.34925 0.902551 4.0484 1.03336C3.74755 1.16416 3.48158 1.34293 3.25049 1.56965C3.0194 1.79638 2.83846 2.06453 2.70765 2.3741C2.57685 2.68367 2.51145 3.0085 2.51145 3.34859Z" fill="#1A1A1A"/>
</svg>
