<svg width="38" height="43" viewBox="0 0 38 43" fill="none" xmlns="http://www.w3.org/2000/svg">
<path d="M8.44458 19H12.6668V23.2222H8.44458V19ZM8.44458 27.4444H12.6668V31.6667H8.44458V27.4444ZM16.889 19H21.1112V23.2222H16.889V19ZM16.889 27.4444H21.1112V31.6667H16.889V27.4444ZM25.3335 19H29.5557V23.2222H25.3335V19ZM25.3335 27.4444H29.5557V31.6667H25.3335V27.4444Z" fill="#D62E6A"/>
<path d="M4.22222 42.2222H33.7778C36.1063 42.2222 38 40.3286 38 38V8.44444C38 6.11589 36.1063 4.22222 33.7778 4.22222H29.5556V0H25.3333V4.22222H12.6667V0H8.44444V4.22222H4.22222C1.89367 4.22222 0 6.11589 0 8.44444V38C0 40.3286 1.89367 42.2222 4.22222 42.2222ZM33.7778 12.6667L33.7799 38H4.22222V12.6667H33.7778Z" fill="#D62E6A"/>
</svg>
