<svg width="34" height="34" viewBox="0 0 34 34" fill="none" xmlns="http://www.w3.org/2000/svg">
<path d="M32.9375 21.25H26.5625C26.2747 21.25 26.0257 21.1449 25.8154 20.9346C25.6051 20.7243 25.5 20.4753 25.5 20.1875V13.8125C25.5 13.5247 25.6051 13.2757 25.8154 13.0654C26.0257 12.8551 26.2747 12.75 26.5625 12.75H32.9375C33.2253 12.75 33.4743 12.8551 33.6846 13.0654C33.8949 13.2757 34 13.5247 34 13.8125V20.1875C34 20.4753 33.8949 20.7243 33.6846 20.9346C33.4743 21.1449 33.2253 21.25 32.9375 21.25ZM31.875 6.375H10.625V2.125H31.875C32.4727 2.125 32.9762 2.33529 33.3857 2.75586C33.7952 3.17643 34 3.68001 34 4.2666C34 4.85319 33.7952 5.35124 33.3857 5.76074C32.9762 6.17025 32.4727 6.375 31.875 6.375ZM7.4375 8.5H1.0625C0.77474 8.5 0.525716 8.39486 0.31543 8.18457C0.105143 7.97428 0 7.72526 0 7.4375V1.0625C0 0.77474 0.105143 0.525716 0.31543 0.31543C0.525716 0.105143 0.77474 0 1.0625 0H7.4375C7.72526 0 7.97428 0.105143 8.18457 0.31543C8.39486 0.525716 8.5 0.77474 8.5 1.0625V7.4375C8.5 7.72526 8.39486 7.97428 8.18457 8.18457C7.97428 8.39486 7.72526 8.5 7.4375 8.5ZM2.125 14.875H23.375V19.125H2.125C1.54948 19.125 1.05143 18.9202 0.630859 18.5107C0.210286 18.1012 0 17.6032 0 17.0166C0 16.43 0.210286 15.9264 0.630859 15.5059C1.05143 15.0853 1.54948 14.875 2.125 14.875ZM1.0625 25.5H7.4375C7.72526 25.5 7.97428 25.6051 8.18457 25.8154C8.39486 26.0257 8.5 26.2747 8.5 26.5625V32.9375C8.5 33.2253 8.39486 33.4743 8.18457 33.6846C7.97428 33.8949 7.72526 34 7.4375 34H1.0625C0.77474 34 0.525716 33.8949 0.31543 33.6846C0.105143 33.4743 0 33.2253 0 32.9375V26.5625C0 26.2747 0.105143 26.0257 0.31543 25.8154C0.525716 25.6051 0.77474 25.5 1.0625 25.5ZM34 29.7666C34 30.3532 33.7952 30.8512 33.3857 31.2607C32.9762 31.6702 32.4727 31.875 31.875 31.875H10.625V27.625H31.875C32.4727 27.625 32.9762 27.8353 33.3857 28.2559C33.7952 28.6764 34 29.18 34 29.7666Z" fill="#D62E6A"/>
</svg>
