<svg width="43" height="43" viewBox="0 0 43 43" fill="none" xmlns="http://www.w3.org/2000/svg">
<path d="M21.25 0C9.53275 0 0 9.53275 0 21.25V30.0539C0 32.2299 1.90612 34 4.25 34H6.375C6.93859 34 7.47909 33.7761 7.8776 33.3776C8.27612 32.9791 8.5 32.4386 8.5 31.875V20.9461C8.5 20.3825 8.27612 19.842 7.8776 19.4435C7.47909 19.045 6.93859 18.8211 6.375 18.8211H4.4455C5.627 10.5974 12.7032 4.25 21.25 4.25C29.7967 4.25 36.873 10.5974 38.0545 18.8211H36.125C35.5614 18.8211 35.0209 19.045 34.6224 19.4435C34.2239 19.842 34 20.3825 34 20.9461V34C34 36.3439 32.0939 38.25 29.75 38.25H25.5V36.125H17V42.5H29.75C34.4378 42.5 38.25 38.6878 38.25 34C40.5939 34 42.5 32.2299 42.5 30.0539V21.25C42.5 9.53275 32.9673 0 21.25 0Z" fill="#D62E6A"/>
</svg>
