<svg width="47" height="35" viewBox="0 0 47 35" fill="none" xmlns="http://www.w3.org/2000/svg">
<path fill-rule="evenodd" clip-rule="evenodd" d="M13.3332 31.6643C13.3332 31.2223 13.5087 30.7985 13.8212 30.4859C14.1338 30.1734 14.5576 29.9979 14.9996 29.9979H44.9944C45.4364 29.9979 45.8603 30.1734 46.1728 30.4859C46.4853 30.7985 46.6608 31.2223 46.6608 31.6643C46.6608 32.1062 46.4853 32.5301 46.1728 32.8426C45.8603 33.1551 45.4364 33.3306 44.9944 33.3306H14.9996C14.5576 33.3306 14.1338 33.1551 13.8212 32.8426C13.5087 32.5301 13.3332 32.1062 13.3332 31.6643ZM13.3332 18.3332C13.3332 17.8912 13.5087 17.4674 13.8212 17.1549C14.1338 16.8424 14.5576 16.6668 14.9996 16.6668H44.9944C45.4364 16.6668 45.8603 16.8424 46.1728 17.1549C46.4853 17.4674 46.6608 17.8912 46.6608 18.3332C46.6608 18.7751 46.4853 19.199 46.1728 19.5115C45.8603 19.824 45.4364 19.9996 44.9944 19.9996H14.9996C14.5576 19.9996 14.1338 19.824 13.8212 19.5115C13.5087 19.199 13.3332 18.7751 13.3332 18.3332ZM13.3332 5.00213C13.3332 4.56018 13.5087 4.13632 13.8212 3.82382C14.1338 3.51131 14.5576 3.33575 14.9996 3.33575H44.9944C45.4364 3.33575 45.8603 3.51131 46.1728 3.82382C46.4853 4.13632 46.6608 4.56018 46.6608 5.00213C46.6608 5.44408 46.4853 5.86793 46.1728 6.18044C45.8603 6.49295 45.4364 6.66851 44.9944 6.66851H14.9996C14.5576 6.66851 14.1338 6.49295 13.8212 6.18044C13.5087 5.86793 13.3332 5.44408 13.3332 5.00213ZM9.51382 0.489562C9.669 0.644355 9.79213 0.828242 9.87613 1.03069C9.96014 1.23314 10.0034 1.45017 10.0034 1.66936C10.0034 1.88855 9.96014 2.10558 9.87613 2.30803C9.79213 2.51048 9.669 2.69437 9.51382 2.84916L4.51467 7.84831C4.35988 8.0035 4.17599 8.12662 3.97354 8.21062C3.77109 8.29463 3.55406 8.33787 3.33487 8.33787C3.11568 8.33787 2.89865 8.29463 2.6962 8.21062C2.49375 8.12662 2.30986 8.0035 2.15507 7.84831L0.488689 6.18193C0.333756 6.02699 0.210855 5.84306 0.127006 5.64063C0.0431566 5.4382 2.30869e-09 5.22124 0 5.00213C-2.30869e-09 4.78302 0.0431566 4.56606 0.127006 4.36363C0.210855 4.1612 0.333756 3.97726 0.488689 3.82233C0.643623 3.6674 0.827555 3.5445 1.02999 3.46065C1.23242 3.3768 1.44938 3.33364 1.66849 3.33364C1.8876 3.33364 2.10456 3.3768 2.30699 3.46065C2.50942 3.5445 2.69335 3.6674 2.84829 3.82233L3.33487 4.31225L7.15422 0.489562C7.30901 0.334378 7.4929 0.211257 7.69535 0.127249C7.8978 0.0432422 8.11483 0 8.33402 0C8.55321 0 8.77024 0.0432422 8.97269 0.127249C9.17514 0.211257 9.35903 0.334378 9.51382 0.489562ZM9.51382 13.8206C9.669 13.9754 9.79213 14.1593 9.87613 14.3618C9.96014 14.5642 10.0034 14.7812 10.0034 15.0004C10.0034 15.2196 9.96014 15.4366 9.87613 15.6391C9.79213 15.8415 9.669 16.0254 9.51382 16.1802L4.51467 21.1794C4.35988 21.3346 4.17599 21.4577 3.97354 21.5417C3.77109 21.6257 3.55406 21.6689 3.33487 21.6689C3.11568 21.6689 2.89865 21.6257 2.6962 21.5417C2.49375 21.4577 2.30986 21.3346 2.15507 21.1794L0.488689 19.513C0.175787 19.2001 0 18.7757 0 18.3332C0 17.8907 0.175787 17.4663 0.488689 17.1534C0.801591 16.8405 1.22598 16.6647 1.66849 16.6647C2.111 16.6647 2.53539 16.8405 2.84829 17.1534L3.33487 17.6433L7.15422 13.8206C7.30901 13.6654 7.4929 13.5423 7.69535 13.4583C7.8978 13.3743 8.11483 13.3311 8.33402 13.3311C8.55321 13.3311 8.77024 13.3743 8.97269 13.4583C9.17514 13.5423 9.35903 13.6654 9.51382 13.8206ZM9.51382 27.1517C9.669 27.3065 9.79213 27.4904 9.87613 27.6928C9.96014 27.8953 10.0034 28.1123 10.0034 28.3315C10.0034 28.5507 9.96014 28.7677 9.87613 28.9702C9.79213 29.1726 9.669 29.3565 9.51382 29.5113L4.51467 34.5104C4.35988 34.6656 4.17599 34.7887 3.97354 34.8727C3.77109 34.9568 3.55406 35 3.33487 35C3.11568 35 2.89865 34.9568 2.6962 34.8727C2.49375 34.7887 2.30986 34.6656 2.15507 34.5104L0.488689 32.8441C0.175787 32.5312 0 32.1068 0 31.6643C0 31.2217 0.175787 30.7974 0.488689 30.4845C0.801591 30.1716 1.22598 29.9958 1.66849 29.9958C2.111 29.9958 2.53539 30.1716 2.84829 30.4845L3.33487 30.9744L7.15422 27.1517C7.30901 26.9965 7.4929 26.8734 7.69535 26.7894C7.8978 26.7054 8.11483 26.6621 8.33402 26.6621C8.55321 26.6621 8.77024 26.7054 8.97269 26.7894C9.17514 26.8734 9.35903 26.9965 9.51382 27.1517Z" fill="#D62E6A"/>
</svg>
