<svg width="42" height="39" viewBox="0 0 42 39" fill="none" xmlns="http://www.w3.org/2000/svg">
<path d="M39.65 28.6H39V20.15C39 17.641 36.959 15.6 34.45 15.6H23.4V10.4H24.05C25.1212 10.4 26 9.5212 26 8.45V1.95C25.9986 1.43325 25.7927 0.938057 25.4273 0.572658C25.0619 0.207259 24.5667 0.00137252 24.05 0H17.55C17.0332 0.00137252 16.5381 0.207259 16.1727 0.572658C15.8073 0.938057 15.6014 1.43325 15.6 1.95V8.45C15.6 9.5212 16.4788 10.4 17.55 10.4H18.2V15.6H7.15C4.641 15.6 2.6 17.641 2.6 20.15V28.6H1.95C1.43346 28.6021 0.938663 28.8082 0.573411 29.1734C0.208159 29.5387 0.00205386 30.0335 0 30.55L0 37.05C0 38.1212 0.8788 39 1.95 39H8.45C9.5238 39 10.4 38.1212 10.4 37.05V30.55C10.3986 30.0332 10.1927 29.5381 9.82734 29.1727C9.46194 28.8073 8.96675 28.6014 8.45 28.6H7.8V20.8H18.2V28.6H17.55C17.0335 28.6021 16.5387 28.8082 16.1734 29.1734C15.8082 29.5387 15.6021 30.0335 15.6 30.55V37.05C15.6 38.1212 16.4788 39 17.55 39H24.05C25.1212 39 26 38.1212 26 37.05V30.55C25.9979 30.0335 25.7918 29.5387 25.4266 29.1734C25.0613 28.8082 24.5665 28.6021 24.05 28.6H23.4V20.8H33.8V28.6H33.15C32.6335 28.6021 32.1387 28.8082 31.7734 29.1734C31.4082 29.5387 31.2021 30.0335 31.2 30.55V37.05C31.2 38.1212 32.0788 39 33.15 39H39.65C40.7212 39 41.6 38.1212 41.6 37.05V30.55C41.5979 30.0335 41.3918 29.5387 41.0266 29.1734C40.6613 28.8082 40.1665 28.6021 39.65 28.6ZM7.8 36.4H2.6V31.2H7.8V36.4ZM23.4 36.4H18.2V31.2H23.4V36.4ZM18.2 7.8V2.6H23.4V7.8H18.2ZM39 36.4H33.8V31.2H39V36.4Z" fill="#D62E6A"/>
</svg>
